<svg id="Layer_1" data-name="Layer 1" xmlns="http://www.w3.org/2000/svg" viewBox="0 0 213.94 244.13"><defs><style>.cls-1{fill:#fff;}</style></defs><path class="cls-1" d="M180.66,97.3a26.68,26.68,0,0,0-5.61-7.49,18.06,18.06,0,0,0-8.36-4.34c-.29-5.32-3.13-14.64-11.53-17.75C154.75,39.94,121.38,29,121,28.93a2,2,0,0,0-1.74,3.55c5.9,4.09,8.67,8.49,10,11.87C107.13,23.74,92.78,27,92.15,27.19a2,2,0,0,0-.37,3.74,34.92,34.92,0,0,1,11.68,8.57c-23.32-14-38.67-3.67-39.37-3.18a2,2,0,0,0,1.51,3.61,16.21,16.21,0,0,1,13.17,3.46c-3.79.23-7.49.79-7.72.82l-.23,0c-.58.17-14.16,4.07-19.24,15.22-4.46,9.77-7.74,31.74-8.33,35.88a18.61,18.61,0,0,0-6,2.84c-.13.09-12.49,9.32-2.25,27.11.71,1.24,1.46,2.39,2.23,3.48-1.73,12-3.34,27.94-1.31,36.18,2.53,10.28.51,15.26.5,15.29a2,2,0,0,0,.45,2.26,2,2,0,0,0,2.28.34,17.75,17.75,0,0,0,7.54-7.06,96,96,0,0,0,8.86,14.34c6.32,8.42,3.63,15.94,3.52,16.25a2,2,0,0,0,3.14,2.25c4-3.32,6-10.45,6.84-14.44,12.61,6.68,32,14.21,32.92,14.55l.1,0c1.29.42,26.19,8.45,45.15,8.45a39.85,39.85,0,0,0,12.21-1.6c5.85-1.93,9.69-5.11,11.39-9.47,2.13-5.44.22-11-.82-13.42a10.35,10.35,0,0,0,2.28-2.61,5.61,5.61,0,0,0-.61-6.09,5.46,5.46,0,0,0-1.4-1.32l0-.08,4.25-16.21c3.32-2.32,4.92-4.85,4.75-7.51-.19-3-2.56-5.08-4.18-6.17a18.53,18.53,0,0,0,2.61-5.65c1.07-3.93.6-7.11-1.45-10a11.15,11.15,0,0,0-2.48-2.51C176,131.26,188,111.65,180.66,97.3ZM39.55,101.46c3.22-2.25,6.49-3,9.71-2.34,5.7,1.23,10,6.67,11.57,8.91q-.4.69-.81,1.44c-2-2.13-6.52-6.41-11.41-6.21-1.84.07-4.5.83-6.73,4.08a12.79,12.79,0,0,0-2.2,7.88c.21,3.8,2,10.69,11.7,14.2a2,2,0,0,0,1.36-3.76c-7.15-2.59-8.87-7.23-9.06-10.66a8.65,8.65,0,0,1,1.5-5.39,4.6,4.6,0,0,1,3.58-2.36,7,7,0,0,1,3.49,1,4.44,4.44,0,0,0-.85.41c-3.19,1.93-2.95,6.57-2.92,7.09a2,2,0,0,0,2,1.86h.14a2,2,0,0,0,1.85-2.14c-.06-.93.17-2.88,1-3.39.29-.18,1.49-.6,4.68,1.31a27.68,27.68,0,0,0-1.73,6,2,2,0,0,0,3.38,1.73,17.38,17.38,0,0,1,1.9-1.6C60,122,58.3,125,58.18,127.78a2,2,0,0,0,3.07,1.78l.83-.5a20.25,20.25,0,0,0-1.28,4.14,9.33,9.33,0,0,1-7.51,2.4c-5.33-.54-10.6-4.91-14.85-12.29C30.05,108.74,39.19,101.72,39.55,101.46ZM167.07,204.73c-1.26,3.18-4.26,5.57-8.91,7.1-16.36,5.38-53.24-6.33-54.82-6.83-1.22-.48-23-9-34.81-15.63a2,2,0,0,0-1.88-.05,2,2,0,0,0-1.09,1.53,42.9,42.9,0,0,1-2,8.25,23.93,23.93,0,0,0-4.79-11.36,89,89,0,0,1-10.37-17.8,2,2,0,0,0-3.83.44,12.31,12.31,0,0,1-3.43,6.19A41,41,0,0,0,39.78,164c-1.35-5.51-1-16.44.89-31,3.74,3.86,7.91,6.15,12.21,6.59.5,0,1,.08,1.51.08a13.69,13.69,0,0,0,6.28-1.5,12.33,12.33,0,0,0,.9,3.19,2,2,0,0,0,1.84,1.21,2,2,0,0,0,.79-.16,2,2,0,0,0,1-2.63c-2.7-6.24,3-13.47,3-13.53A2,2,0,0,0,66.56,123a10.51,10.51,0,0,0-2.84.79,34.2,34.2,0,0,1,5.09-6.38,2,2,0,0,0-.54-3.25c-2.06-1-4.35-.41-6.33.58A41.82,41.82,0,0,1,67.77,105a2,2,0,1,0-3.06-2.58c-.08.1-.7.84-1.56,2-2.34-3-6.92-7.89-13-9.21a14.64,14.64,0,0,0-2.77-.33c.87-5.79,4-25.21,7.86-33.75,4.09-9,15.36-12.62,16.57-13,1-.15,7.81-1.12,11.63-.77a2,2,0,0,0,1.79-3.18,23.36,23.36,0,0,0-10.67-7.58c7.26-1.28,19-.39,33.73,11.05a2,2,0,0,0,3.18-2c-.09-.36-1.83-7.5-10.75-14,6.52,1.55,17,6.29,30.24,20a2,2,0,0,0,2.12.49,2,2,0,0,0,1.31-1.73c0-.34.39-6.17-4.28-12.88,8.86,5.08,20.34,14.49,21,29.31l-.64-.07c-13.41-1-35.68-4-35.91-4a2,2,0,1,0-.53,4c.22,0,22.62,3.06,36.14,4a14.3,14.3,0,0,1,2.17.33,1.81,1.81,0,0,0,.53.15c7.84,2.22,9.44,11.12,9.74,13.86a19.56,19.56,0,0,0-11.11,3.56l-.17.12a8.2,8.2,0,0,1-10.94-1.65c-4.48-5.34-16.61-17.13-32.49-11.16-8.46,3.18-14.68,9.94-18,19.53a45.48,45.48,0,0,0-2.43,13.4c-.22,2-2,21.36,13.54,34.51-5,1.19-11.68,4.77-12.74,15.36-.6,6,2,12.44,7.8,19.07a54.48,54.48,0,0,0,27.13,16.62,96.14,96.14,0,0,0,24.22,3.34,63.74,63.74,0,0,0,17.3-2.24,13.15,13.15,0,0,0,1.76-.64C167.35,196.93,168.54,201,167.07,204.73ZM167,177.19l-1.95.39-1-3.87a.49.49,0,0,0-.42-.37.5.5,0,0,0-.51.27l-2.85,5.55c-2,.33-15.89,2.47-28.43-1.23l-1.28-3.12a.5.5,0,0,0-.88-.08L128,177.26c-1.6-.26-9.64-2-19.14-11.54l.12.21.23.39.13.2.13.22.12.18.13.22.13.19.16.25.25.38.32.46.28.4.37.52c9.34,8.15,16.6,8.92,17,8.95a.49.49,0,0,0,.46-.22l1.34-2,1,2.47a.51.51,0,0,0,.32.29,59.87,59.87,0,0,0,17,2.25,74.93,74.93,0,0,0,12.36-1,.52.52,0,0,0,.35-.26l2.36-4.6.77,3a.49.49,0,0,0,.58.36l1.88-.38-1.24,4c-2.49,1.85-9.68,5.09-28,2.4-16.52-2.42-24.91-12.46-28.82-19.38,10,6.21,23.28,8.72,39,7.29a116,116,0,0,0,22.22-4.31Zm3.18-44.42a12.65,12.65,0,0,0-2.55-.5c-7-.63-11.09,1.84-13,3.49a29.75,29.75,0,0,0-16.86-3.52c-5.23.8-9,3-11.15,6.66-3.93,6.55-1,15.1-.87,15.46a2,2,0,0,0,3.77-1.32c0-.07-2.43-7.17.54-12.1,1.53-2.54,4.33-4.13,8.26-4.73A25.82,25.82,0,0,1,153.89,140a2,2,0,0,0,2.71-.52c.12-.16,3-3.89,10.67-3.2A7.85,7.85,0,0,1,173,139.4c1.35,1.91,1.61,3.9.86,6.66a15.84,15.84,0,0,1-10.11,10.6c-5.83,2.09-16.52,4.18-34.33,2.19a2,2,0,1,0-.44,4,125.75,125.75,0,0,0,13.93.83c10.58,0,17.71-1.61,22.19-3.23a20.59,20.59,0,0,0,7.41-4.59c1,.63,2.7,1.94,2.79,3.34.07,1.22-1.14,2.71-3.42,4.23-3.27,1.14-41.79,14-64.46-3.77a9.77,9.77,0,0,1,1.9.05,2,2,0,0,0,.63-4c-.22,0-5.25-.8-8.63,2a8.25,8.25,0,0,0-2.91,6.37,2,2,0,0,0,1.91,2.08h.09a2,2,0,0,0,2-1.92,5.82,5.82,0,0,1,.37-1.89,43,43,0,0,0,34.05,26.31,91.38,91.38,0,0,0,13.25,1.07c9.31,0,14.41-2,17.15-3.77a2.66,2.66,0,0,0,.28,0c.43-.11.82.33,1,.53a1.74,1.74,0,0,1,.34,1.66,9.15,9.15,0,0,1-5.11,3.55c-15.49,4.38-32.71.68-39.4-1.11a50.47,50.47,0,0,1-25.15-15.39c-5-5.76-7.33-11.16-6.84-16,.55-5.5,3-9.23,7.26-11.1a15.81,15.81,0,0,1,6.63-1.23,2,2,0,0,0,1.24-3.67c-18.69-12.11-16.05-33-15.93-33.87a2.64,2.64,0,0,0,0-.29c0-.23,0-22.61,17.82-29.3,13-4.89,23.13,4.16,28,10A12.21,12.21,0,0,0,153.62,92l.2-.14a14.77,14.77,0,0,1,18.53.87,22.61,22.61,0,0,1,4.75,6.37C183.86,112.3,170.51,132.28,170.18,132.77Z"/><path class="cls-1" d="M159.6,95.56c-7.21,0-13.07,7.6-13.07,16.94s5.86,16.94,13.07,16.94,13.07-7.6,13.07-16.94S166.8,95.56,159.6,95.56Zm-9.27,16.94c0-7.24,4.16-13.13,9.27-13.13,3.61,0,6.73,2.95,8.26,7.23a8.76,8.76,0,0,0-5.76-2.27c-5.74,0-10.4,6.06-10.4,13.53,0,.57,0,1.12.08,1.66A17.25,17.25,0,0,1,150.33,112.5Zm4.8.73c.54-2.21,2.37-3.66,4.07-3.24s2.65,2.55,2.1,4.76-2.37,3.66-4.07,3.24S154.58,115.44,155.13,113.23Z"/><path class="cls-1" d="M121,90.51c-9.13,0-16.55,9.67-16.55,21.55s7.42,21.55,16.55,21.55,16.56-9.67,16.56-21.55S130.09,90.51,121,90.51Zm-12.64,21.55c0-9.73,5.67-17.64,12.64-17.64,5.84,0,10.75,5.54,12.2,13A10,10,0,0,0,125.8,104c-6.34,0-11.48,6.68-11.48,14.92a17.59,17.59,0,0,0,3,10C112.12,126.75,108.32,120,108.32,112.06Zm9.56,1.17c.54-2.21,2.37-3.66,4.07-3.24s2.65,2.55,2.1,4.76-2.37,3.66-4.07,3.24S117.33,115.44,117.88,113.23Z"/><path class="cls-1" d="M158.06,154.53a7.38,7.38,0,0,1,3.83-1.6c7-1.31,7.65-3.74,7.65-3.74,1-3.31-1.41-4.4-3.23-4.75a8.39,8.39,0,0,0-3.63.13c-6,1.54-5.42,7.87-5.09,9.8A.28.28,0,0,0,158.06,154.53Z"/><path class="cls-1" d="M148.51,154.14a8.68,8.68,0,0,1,4.66.7.43.43,0,0,0,.64-.41c-.2-2.49-1.42-9.63-8.68-9.63a9.69,9.69,0,0,0-4,.85c-2,.91-4.45,2.81-2.39,6.32C138.73,152,140.2,154.56,148.51,154.14Z"/></svg>