<svg id="Layer_1" data-name="Layer 1" xmlns="http://www.w3.org/2000/svg" viewBox="0 0 448.51 244.13"><path d="M193.47,97.3a26.31,26.31,0,0,0-5.61-7.49,18,18,0,0,0-8.35-4.34c-.3-5.32-3.14-14.64-11.54-17.75C167.56,39.94,134.2,29,133.85,28.93a2,2,0,0,0-1.74,3.55c5.91,4.09,8.68,8.49,10,11.87C119.94,23.74,105.6,27,105,27.19a2,2,0,0,0-.37,3.74,35,35,0,0,1,11.69,8.57C93,25.46,77.6,35.83,76.9,36.32a2,2,0,0,0,1.51,3.61,16.25,16.25,0,0,1,13.17,3.46c-3.79.23-7.49.79-7.71.82l-.24,0c-.57.17-14.15,4.07-19.24,15.22-4.45,9.77-7.74,31.74-8.33,35.88a18.66,18.66,0,0,0-6,2.84c-.13.09-12.5,9.32-2.26,27.11.71,1.24,1.46,2.39,2.23,3.48-1.73,12-3.33,27.94-1.31,36.18,2.53,10.28.52,15.26.5,15.29a2,2,0,0,0,2.73,2.6,17.75,17.75,0,0,0,7.54-7.06,96.18,96.18,0,0,0,8.87,14.34c6.31,8.42,3.63,15.94,3.52,16.25A2,2,0,0,0,75,208.64c4-3.32,6-10.45,6.83-14.44,12.62,6.68,32.05,14.21,32.92,14.55l.1,0c1.3.42,26.2,8.45,45.16,8.45a39.79,39.79,0,0,0,12.2-1.6c5.86-1.93,9.69-5.11,11.4-9.47,2.13-5.44.21-11-.83-13.42a10.16,10.16,0,0,0,2.28-2.61,5.6,5.6,0,0,0-.6-6.09,5.66,5.66,0,0,0-1.41-1.32l0-.08,4.25-16.21c3.32-2.32,4.92-4.85,4.75-7.51-.18-3-2.55-5.08-4.17-6.17a18.77,18.77,0,0,0,2.61-5.65c1.06-3.93.6-7.11-1.46-10a11.15,11.15,0,0,0-2.48-2.51C188.76,131.26,200.84,111.65,193.47,97.3ZM52.36,101.46c3.23-2.25,6.49-3,9.72-2.34,5.69,1.23,10,6.67,11.56,8.91q-.4.69-.81,1.44c-2-2.13-6.5-6.4-11.41-6.21-1.84.07-4.5.83-6.73,4.08a12.74,12.74,0,0,0-2.19,7.88c.21,3.8,2,10.69,11.69,14.2a2.09,2.09,0,0,0,.69.12,2,2,0,0,0,.68-3.88c-7.15-2.6-8.88-7.23-9.07-10.66a8.71,8.71,0,0,1,1.5-5.39,4.61,4.61,0,0,1,3.58-2.36,7,7,0,0,1,3.47,1,5.18,5.18,0,0,0-.82.4c-3.19,1.93-3,6.57-2.92,7.09a2,2,0,0,0,2,1.86h.15a2,2,0,0,0,1.85-2.14c-.07-.93.16-2.88,1-3.39.3-.18,1.5-.6,4.69,1.31a28.27,28.27,0,0,0-1.74,6,2,2,0,0,0,3.39,1.73,16.34,16.34,0,0,1,1.89-1.6C72.76,122,71.12,125,71,127.79a2,2,0,0,0,3.06,1.77l.83-.5a20.89,20.89,0,0,0-1.28,4.14,9.33,9.33,0,0,1-7.51,2.4c-5.32-.54-10.59-4.91-14.84-12.29C42.87,108.74,52,101.72,52.36,101.46ZM179.89,204.71c-1.25,3.19-4.25,5.58-8.92,7.12-16.35,5.38-53.23-6.33-54.82-6.83-1.22-.48-23-9-34.81-15.63a2,2,0,0,0-3,1.48,42.73,42.73,0,0,1-2,8.25,24,24,0,0,0-4.79-11.36,88.41,88.41,0,0,1-10.37-17.8,2,2,0,0,0-3.84.44,12.16,12.16,0,0,1-3.42,6.19A41,41,0,0,0,52.6,164c-1.36-5.51-1-16.44.88-31,3.74,3.86,7.92,6.15,12.21,6.59.51,0,1,.08,1.51.08a13.69,13.69,0,0,0,6.28-1.5,12.76,12.76,0,0,0,.91,3.19,2,2,0,0,0,1.84,1.21,2,2,0,0,0,.79-.16,2,2,0,0,0,1-2.63c-2.7-6.24,3-13.47,3.06-13.53A2,2,0,0,0,79.37,123a10.45,10.45,0,0,0-2.83.79,34.64,34.64,0,0,1,5.08-6.38,2,2,0,0,0,.58-1.77,2,2,0,0,0-1.12-1.48c-2.06-1-4.35-.41-6.33.58A42.21,42.21,0,0,1,80.58,105a2,2,0,1,0-3.06-2.58c-.08.1-.69.84-1.55,2-2.35-3-6.93-7.89-13-9.21a14.44,14.44,0,0,0-2.76-.33c.86-5.79,4-25.21,7.85-33.75,4.09-9,15.37-12.62,16.57-13,1-.15,7.81-1.12,11.63-.77a2,2,0,0,0,1.93-1A2,2,0,0,0,98,44.2a23.48,23.48,0,0,0-10.68-7.58c7.27-1.28,19-.39,33.73,11.05a2,2,0,0,0,3.18-2c-.08-.36-1.81-7.43-10.62-14,6.57,1.61,17,6.38,30.12,19.92a2,2,0,0,0,3.43-1.24c0-.34.39-6.17-4.29-12.88C151.76,42.56,163.25,52,164,66.79l-.65-.07c-13.4-1-35.68-4-35.9-4a2,2,0,0,0-.54,4c.23,0,22.62,3.06,36.15,4a14,14,0,0,1,2.16.33,2,2,0,0,0,.53.15c7.85,2.22,9.44,11.12,9.75,13.86a19.54,19.54,0,0,0-11.11,3.56l-.17.12a8.23,8.23,0,0,1-11-1.65c-4.47-5.34-16.61-17.13-32.49-11.16-8.46,3.18-14.67,9.94-18,19.53a45.65,45.65,0,0,0-2.44,13.4c-.22,2-1.94,21.36,13.54,34.51-5,1.19-11.68,4.77-12.74,15.36-.6,6,2,12.44,7.81,19.07a54.39,54.39,0,0,0,27.13,16.62,96.06,96.06,0,0,0,24.22,3.34,63.84,63.84,0,0,0,17.3-2.24,13.67,13.67,0,0,0,1.76-.64C180.17,196.92,181.36,201,179.89,204.71Zm-.08-27.52-1.94.39-1-3.87a.49.49,0,0,0-.43-.37.48.48,0,0,0-.5.27l-2.85,5.55c-2,.33-15.9,2.47-28.44-1.23l-1.28-3.12a.48.48,0,0,0-.41-.3.5.5,0,0,0-.47.22l-1.68,2.53c-1.61-.26-9.64-2-19.15-11.54l.13.22.23.38.12.21.14.21.11.18.14.22.12.19.16.25.25.38.32.46.28.4.38.52c9.34,8.15,16.59,8.92,17,8.95a.5.5,0,0,0,.47-.22l1.34-2,1,2.47a.49.49,0,0,0,.32.29,59.82,59.82,0,0,0,17,2.25,74.73,74.73,0,0,0,12.35-1,.52.52,0,0,0,.35-.26l2.36-4.6.77,3a.5.5,0,0,0,.59.36l1.88-.38-1.24,4c-2.49,1.85-9.68,5.09-28,2.4-16.53-2.42-24.92-12.46-28.82-19.38,10,6.21,23.27,8.72,38.94,7.29a115.87,115.87,0,0,0,22.22-4.31ZM183,132.77a12.65,12.65,0,0,0-2.55-.5c-7-.62-11.09,1.84-13,3.49a29.79,29.79,0,0,0-16.87-3.52c-5.22.8-9,3-11.14,6.66-3.94,6.55-1,15.1-.88,15.46a2,2,0,0,0,3.78-1.33c0-.07-2.45-7.11.53-12.07,1.52-2.55,4.32-4.15,8.27-4.75A25.83,25.83,0,0,1,166.71,140a2,2,0,0,0,2.7-.52c.12-.16,3-3.89,10.68-3.2a7.87,7.87,0,0,1,5.72,3.14c1.35,1.91,1.6,3.9.86,6.66a15.89,15.89,0,0,1-10.11,10.6c-5.84,2.1-16.53,4.18-34.34,2.19a2,2,0,1,0-.44,4,126.06,126.06,0,0,0,13.94.83c10.57,0,17.7-1.61,22.19-3.23a20.68,20.68,0,0,0,7.41-4.59c1,.63,2.69,1.94,2.78,3.34.08,1.22-1.14,2.71-3.42,4.23-3.26,1.13-41.79,14-64.45-3.77a9.63,9.63,0,0,1,1.89.05,2,2,0,0,0,.63-4c-.21,0-5.24-.8-8.63,2a8.25,8.25,0,0,0-2.91,6.37,2,2,0,0,0,1.92,2.08h.08a2,2,0,0,0,2-1.92,5.83,5.83,0,0,1,.36-1.89,43,43,0,0,0,34.06,26.31,91.38,91.38,0,0,0,13.25,1.07c9.3,0,14.41-2,17.15-3.77a2.48,2.48,0,0,0,.27,0c.43-.11.82.33,1,.53a1.72,1.72,0,0,1,.35,1.66,9.18,9.18,0,0,1-5.12,3.55c-15.48,4.38-32.71.68-39.4-1.11A50.51,50.51,0,0,1,112,175.16c-5-5.76-7.33-11.16-6.84-16,.55-5.5,3-9.23,7.26-11.1a15.81,15.81,0,0,1,6.63-1.23,2,2,0,0,0,2-1.35,2,2,0,0,0-.81-2.32c-18.69-12.11-16-33-15.93-33.87a1.37,1.37,0,0,0,0-.29c0-.22.1-22.63,17.82-29.3,13-4.89,23.13,4.16,28,10A12.18,12.18,0,0,0,166.43,92l.21-.14a14.76,14.76,0,0,1,18.52.87,22.45,22.45,0,0,1,4.76,6.37C196.68,112.3,183.32,132.28,183,132.77Z"/><path d="M172.41,95.56c-7.21,0-13.07,7.6-13.07,16.94s5.86,16.94,13.07,16.94,13.07-7.6,13.07-16.94S179.62,95.56,172.41,95.56Zm-9.26,16.94c0-7.24,4.15-13.13,9.26-13.13,3.61,0,6.74,2.95,8.27,7.23a8.76,8.76,0,0,0-5.76-2.27c-5.75,0-10.41,6.06-10.41,13.53,0,.57,0,1.12.08,1.66A17.25,17.25,0,0,1,163.15,112.5Zm4.79.73c.55-2.21,2.37-3.66,4.08-3.24s2.64,2.55,2.1,4.76-2.37,3.66-4.08,3.24S167.4,115.44,167.94,113.23Z"/><path d="M133.78,90.51c-9.13,0-16.56,9.67-16.56,21.55s7.43,21.55,16.56,21.55,16.56-9.67,16.56-21.55S142.91,90.51,133.78,90.51Zm-12.65,21.55c0-9.73,5.68-17.64,12.65-17.64,5.83,0,10.74,5.54,12.2,13a10,10,0,0,0-7.37-3.48c-6.33,0-11.47,6.68-11.47,14.92a17.59,17.59,0,0,0,3,10C124.93,126.75,121.13,120,121.13,112.06Zm9.56,1.17c.55-2.21,2.37-3.66,4.08-3.24s2.64,2.55,2.1,4.76-2.37,3.66-4.08,3.24S130.15,115.44,130.69,113.23Z"/><path d="M170.88,154.53a7.33,7.33,0,0,1,3.82-1.6c7-1.31,7.65-3.74,7.65-3.74,1-3.31-1.41-4.4-3.23-4.75a8.4,8.4,0,0,0-3.63.13c-6,1.54-5.41,7.87-5.09,9.8A.28.28,0,0,0,170.88,154.53Z"/><path d="M161.32,154.14a8.72,8.72,0,0,1,4.67.7.43.43,0,0,0,.63-.41c-.2-2.49-1.42-9.63-8.67-9.63a9.77,9.77,0,0,0-4,.85c-2,.91-4.44,2.81-2.38,6.32C151.55,152,153,154.56,161.32,154.14Z"/><path d="M240.33,118.08c.77,0,1.55,0,2.32,0-.41-3.5-.76-6.23-1.07-8.18a30.63,30.63,0,0,0-.79-4c-.14-.45-.29-.67-.43-.67s-.16.07-.24.21a7.58,7.58,0,0,0-.61,2.35c-.19,1.18-.39,2.66-.61,4.45s-.48,3.72-.76,5.8c.45,0,.93,0,1.42,0Z"/><path d="M227.16,140.43h.07l2.44,0c1.41,0,2.51,0,3.27.07s1.39.07,1.9.07a8.72,8.72,0,0,0,1.64-.12,4.68,4.68,0,0,0,1.31-.38,5,5,0,0,0,2.51-2.28q.15-.28.3-.6a5,5,0,0,0,3.93,3,28,28,0,0,0,4.68.56l1.08,0a22,22,0,0,0,4.14-.39,5.19,5.19,0,0,0,1.9-.84,5.06,5.06,0,0,0,1.73.53c.82.1,1.74.17,2.81.22.69,0,1.4,0,2.1,0H264c1,0,2-.07,3-.13a15.9,15.9,0,0,0,2.88-.44,4.94,4.94,0,0,0,1-.31,5,5,0,0,0,3.13-4.64v-.2c-.09-2.91-.14-5.27-.16-7,0-1.26,0-2.32,0-3.21a17.46,17.46,0,0,0,2-.42,20.48,20.48,0,0,0,6.78-3.27,21.1,21.1,0,0,0,3-2.69c0,2.24.08,4.5.13,6.74.08,3.44.12,6.94.12,10.41a5,5,0,0,0,4.59,5c2.87.24,5.87.36,8.9.36,1.32,0,2.68,0,4-.07,3.27-.11,6.55-.16,9.74-.16h2.75a5,5,0,0,0,4.84-3.71,22.4,22.4,0,0,0,.71-5.08c0-1.5,0-3-.06-4.35a5,5,0,0,0-5-5h-.15c-.95,0-1.9,0-2.83,0-.77,0-1.54,0-2.29,0a5,5,0,0,0,1.61-3.81c0-1.36,0-2.67,0-3.9a25.23,25.23,0,0,0-.19-4.91,4.91,4.91,0,0,0-.73-2.23l.65,0a28.58,28.58,0,0,0,4.77-.62,5,5,0,0,0,3.93-4.89v-.06c0-1.31.05-2.65.14-4a26.14,26.14,0,0,0-.19-5.39h0a5.08,5.08,0,0,0-4.76-4.33L315.17,88c-.91,0-2.08-.07-3.48-.07s-2.92,0-4.75.07l-5.43.12q-2.83.06-5.64.15c-1.84.06-3.6.14-5.24.22a5,5,0,0,0-4.74,4.7l0,.71a17.49,17.49,0,0,0-2.54-2.32,20.46,20.46,0,0,0-6.55-3.23A34.15,34.15,0,0,0,270,87.08c-1-.09-2-.13-3-.13a37.05,37.05,0,0,0-3.8.2,40.36,40.36,0,0,0-6.24,1.12,5,5,0,0,0-3.71,5c.12,3.29.19,6.81.21,10.46,0,2.68,0,5.35,0,8-.12-.48-.25-1-.4-1.64-.28-1.17-.58-2.45-.9-3.85s-.66-2.89-1-4.43l-1-4.36c-.3-1.37-.6-2.63-.87-3.76s-.45-1.83-.57-2.35a5,5,0,0,0-4.87-3.87,3.39,3.39,0,0,0-.45,0c-1.23.11-2.22.18-2.93.19l-1.93,0h-1.28a12.09,12.09,0,0,0-1.61.11,5,5,0,0,0-4.09,3.52c-1,3.32-1.93,6.71-2.75,10.06s-1.58,6.52-2.28,9.61-1.32,6-1.84,8.81-.94,5.09-1.32,7.22-.66,3.84-.87,5.16-.29,1.75-.32,1.86a5,5,0,0,0,1.26,4.78A5.13,5.13,0,0,0,227.16,140.43Zm63.36-36.54q.06-5.17.37-10.43c1.58-.08,3.3-.15,5.15-.21s3.71-.11,5.58-.15l5.43-.12c1.75,0,3.29-.07,4.64-.07s2.42,0,3.23.07a4.81,4.81,0,0,1,1.22.12,20.81,20.81,0,0,1,.15,4.33c-.1,1.46-.15,2.91-.15,4.33v.06a22.74,22.74,0,0,1-3.94.52c-1,0-2,.07-3,.07h-1c-1.34,0-2.68,0-4,0s-2.68.06-4,.18H300l-.06.06a24.83,24.83,0,0,1-.15,3.63,9.71,9.71,0,0,0,.21,3.51l.07.06q1.83.12,3.72.12t3.78.06v.07a20.51,20.51,0,0,1,.18,4.14c-.08,1.39-.1,2.83-.06,4.33a8.56,8.56,0,0,1-2.07.28l-2.23,0q-1.07,0-1.92.06a2.13,2.13,0,0,0-1.16.31,18.44,18.44,0,0,0-.21,4q.09,2.19.21,3.66l.06.06c2.68,0,5.33.07,7.93.21,1.66.1,3.34.14,5.07.14,1,0,2,0,3,0v.12c.08,1.3.1,2.65.06,4.06a16.86,16.86,0,0,1-.55,3.93h-2.75q-4.89,0-9.9.16c-1.31,0-2.59.07-3.87.07-2.91,0-5.74-.12-8.49-.34q0-5.31-.12-10.52t-.18-10.41Q290.46,109.09,290.52,103.89ZM263.68,92.12A32.8,32.8,0,0,1,267,92c.87,0,1.75,0,2.63.11a28.56,28.56,0,0,1,5.76,1.07,15.48,15.48,0,0,1,5,2.44,12.64,12.64,0,0,1,5.16,10v.89a4.77,4.77,0,0,1-.06.76,12.9,12.9,0,0,1-1.93,5.37,15.12,15.12,0,0,1-3.87,4.14,15.31,15.31,0,0,1-5.12,2.48,13.18,13.18,0,0,1-3.47.46,13.55,13.55,0,0,1-2.27-.19q.06.85.06,1.68v2.38c0,1,0,2.43,0,4.17s.08,4.11.16,7.08v.06a.12.12,0,0,0-.09,0,.17.17,0,0,1-.1,0,10.2,10.2,0,0,1-2.16.34c-.88.06-1.79.1-2.75.12H263c-.63,0-1.26,0-1.88,0-.94,0-1.75-.1-2.44-.18q-.19-4.45-.19-9.67V114.75q0-5.49,0-11t-.21-10.61A35.48,35.48,0,0,1,263.68,92.12ZM227.46,133c.2-1.3.49-3,.85-5.06s.81-4.46,1.32-7.17,1.1-5.58,1.8-8.63,1.44-6.22,2.25-9.52,1.71-6.56,2.69-9.82a6.52,6.52,0,0,1,.91-.06h1.28l2.05,0c.83,0,1.92-.09,3.26-.21.12.53.31,1.33.58,2.41s.55,2.3.85,3.66.63,2.81,1,4.36.68,3,1,4.45.63,2.73.91,3.91.51,2.11.67,2.8l4.58,21.35v.06a15.77,15.77,0,0,1-3.16.3l-.87,0a24.51,24.51,0,0,1-4.15-.52h-.06a21.33,21.33,0,0,1-.7-2.32c-.22-.89-.45-1.81-.67-2.74s-.46-1.83-.7-2.69a15.06,15.06,0,0,0-.8-2.19,7.55,7.55,0,0,0-1.22-.13h-.76l-.73,0c-.27,0-.62,0-1.07,0a12.17,12.17,0,0,0-.7,2.29c-.18.88-.37,1.79-.55,2.75s-.37,1.88-.58,2.77a9.64,9.64,0,0,1-.85,2.38.12.12,0,0,0-.09,0,.12.12,0,0,1-.09,0,4.2,4.2,0,0,1-.86.06c-.41,0-.93,0-1.58-.06-.87-.05-2.07-.08-3.59-.08l-2.51,0a.18.18,0,0,1-.13-.06C227.11,135.09,227.26,134.29,227.46,133Z"/><path d="M267.16,104c0,.81,0,1.62,0,2.44s.06,1.59.12,2.34a8.78,8.78,0,0,0,.39,2.05h.19q1-.06,2.07-.09c.73,0,1.46-.07,2.17-.16a10.32,10.32,0,0,0,2.07-.45,3.2,3.2,0,0,0,2.44-2.6,4.07,4.07,0,0,0,.06-1.7,4.34,4.34,0,0,0-.61-1.59,3.75,3.75,0,0,0-1.25-1.22,7.64,7.64,0,0,0-3.54-1.56,10,10,0,0,0-1.63-.13,9.24,9.24,0,0,0-2.33.29.24.24,0,0,0-.18.06C267.17,102.37,267.18,103.14,267.16,104Z"/><path d="M266,161.91c-.15-.45-.29-.67-.43-.67s-.16.07-.24.21a7.8,7.8,0,0,0-.62,2.35c-.18,1.18-.38,2.66-.6,4.45s-.48,3.72-.77,5.8c.46,0,.94,0,1.43,0h.77c.77,0,1.54,0,2.32,0q-.61-5.25-1.07-8.18A32.52,32.52,0,0,0,266,161.91Z"/><path d="M356.14,157.58a4.47,4.47,0,0,0-3.13-1.14h-.29a12.82,12.82,0,0,0-4.21.94c0,.53.08,1.13.1,1.8s0,1.36,0,2.05,0,1.36,0,2a11.68,11.68,0,0,0,.15,1.65h.06c.94.08,1.95.14,3.05.18h.66a14.93,14.93,0,0,0,2.45-.19,2.82,2.82,0,0,0,1.8-1.19,4.45,4.45,0,0,0,.76-2.08,5.42,5.42,0,0,0-.24-2.25A3.56,3.56,0,0,0,356.14,157.58Z"/><path d="M404.77,178.62v-5.24c0-1.74,0-3.5-.06-5.25V148.55a5,5,0,0,0-4-4.9,25.11,25.11,0,0,0-5-.47,29.69,29.69,0,0,0-5.26.45,5,5,0,0,0-3.63,2.74,5.62,5.62,0,0,0-3.86-2.37c-.57-.1-1.21-.2-1.9-.27s-1.37-.12-2.06-.15l-1.4,0c-.63,0-1.25,0-1.87.08a16.68,16.68,0,0,0-1.86.26,5,5,0,0,0-4,4.51c-.06.67-.09,1.36-.14,2a18.71,18.71,0,0,0-4.83-4.54,17.64,17.64,0,0,0-8.81-2.89,48.46,48.46,0,0,0-5.05-.27,42.87,42.87,0,0,0-4.42.23c-2.77.29-5.36.6-7.69.93a5,5,0,0,0-2,.8,6,6,0,0,0-2.15-.64l-1.16-.08c-.91,0-2.08-.07-3.49-.07s-2.92,0-4.75.07l-5.42.12q-2.83.06-5.64.15c-1.84.06-3.61.14-5.24.22a5.05,5.05,0,0,0-2.62.9,5.2,5.2,0,0,0-1.46-.53,20.66,20.66,0,0,0-2.9-.28c-.8,0-1.6,0-2.39,0s-1.4,0-2.08,0a5.23,5.23,0,0,1-1.14-.15,4.86,4.86,0,0,0-1.14-.13,5.14,5.14,0,0,0-4.42,2.52,5,5,0,0,0-3.1-2.31,14,14,0,0,0-2.74-.33c-.65,0-1.32,0-2,0h-1a23.47,23.47,0,0,0-3.25.27,7.4,7.4,0,0,0-4.64,2.29c-.11.13-.19.27-.29.4a5,5,0,0,0-4.76-3.54,3.62,3.62,0,0,0-.46,0c-1.22.11-2.21.18-2.93.19l-1.92,0h-1.28a12,12,0,0,0-1.61.11,5,5,0,0,0-3.6,2.42,5,5,0,0,0-3.58-2.13,120.43,120.43,0,0,0-12.86-.67h-.59c-4.43,0-8.71,0-12.87.09a5,5,0,0,0-4.95,5c0,.16,0,.32,0,.47,0,.87-.08,1.78-.08,2.7,0,1.13,0,2.13,0,3.07s.07,1.93.14,2.71a8.22,8.22,0,0,0,.73,3,5,5,0,0,0,2.87,2.49,9,9,0,0,0,2.88.38h1.27c.14,3.9.24,7.36.28,10.32.06,4,.08,7.25.06,9.79s0,4.46-.09,5.71a12.2,12.2,0,0,0,.16,3.58,5,5,0,0,0,4.84,3.77,5.66,5.66,0,0,0,.82-.06,9.25,9.25,0,0,1,1.56-.12h2.59c.92,0,1.83,0,2.75,0a23.19,23.19,0,0,0,3.11-.28,5,5,0,0,0,2.4-1.11,5.1,5.1,0,0,0,3.59,1.48h.08l2.44,0c1.41,0,2.51,0,3.27.07s1.38.07,1.9.07a8.79,8.79,0,0,0,1.64-.12,4.52,4.52,0,0,0,1.3-.38,4.93,4.93,0,0,0,2.51-2.28,5.59,5.59,0,0,0,.3-.6,5,5,0,0,0,3.94,3,28,28,0,0,0,4.68.56l1.07,0a21.8,21.8,0,0,0,4.14-.39,5,5,0,0,0,2.41-1.24,4.91,4.91,0,0,0,1.52.8,15.42,15.42,0,0,0,3.51.61c1,.07,2,.11,3,.11a25.86,25.86,0,0,0,2.9-.16c.71-.08.95-.09,1-.09a5,5,0,0,0,4.8-3.67c1-3.54,1.93-7.08,2.83-10.53.81-3.12,1.6-6.2,2.35-9.22,0,2.59.09,5.19.15,7.77.08,3.44.12,6.94.12,10.41a5,5,0,0,0,4.59,5c2.87.24,5.86.36,8.9.36,1.32,0,2.68,0,4-.07,3.27-.11,6.55-.16,9.74-.16h2.75a4.93,4.93,0,0,0,2.79-.87,5,5,0,0,0,3,1.05l.54,0h0l.83,0c.66,0,1.38,0,2.14,0h1.14c1.2,0,2.41-.08,3.6-.16a13.78,13.78,0,0,0,4.25-.91,4.88,4.88,0,0,0,2-1.56,5,5,0,0,0,4.23,2.54c1.05.07,2.11.1,3.14.1s1.81,0,2.7-.08c1.66-.09,3.16-.14,4.47-.14h0a4.91,4.91,0,0,0,2.54-.72,5,5,0,0,0,2.77.84,18.32,18.32,0,0,1,2.29.15,31,31,0,0,0,3.57.22c.59,0,1.19,0,1.79-.08a14,14,0,0,0,2.21-.4,5,5,0,0,0,3.26-2.81v0a5,5,0,0,0,4.56,3c.66,0,1.44,0,2.33.13,1.24.12,2.31.18,3.29.18a10.5,10.5,0,0,0,2.83-.31A9.41,9.41,0,0,0,402,196a5,5,0,0,0,2.81-4.5v-1.22c0-.85,0-1.71,0-2.56s0-1.55,0-2.32c0-1.1,0-2.19,0-3.26S404.77,179.83,404.77,178.62ZM245.46,158.55h-.19a.12.12,0,0,1,0,.09.17.17,0,0,0,0,.1,6.88,6.88,0,0,0-.09.94q0,.65,0,2t0,3.6c0,1.49,0,3.4.09,5.74s.08,5.14.12,8.42.1,7.12.19,11.55v.13a17.58,17.58,0,0,1-2.41.21c-.88,0-1.75,0-2.63,0h-2.59a14.76,14.76,0,0,0-2.38.18,17,17,0,0,1,0-2.19c0-1.3.07-3.24.09-5.83s0-5.88-.06-9.91-.21-8.89-.45-14.58L235,159a5,5,0,0,0-1.83-.46q-1.09-.09-2.19-.12l-2,0a4.77,4.77,0,0,1-1.29-.12,4.57,4.57,0,0,1-.21-1.22c-.06-.65-.1-1.44-.12-2.35s0-1.9,0-3,0-2.07.12-3.05q0-.06,0-.06s0,0,0-.06q6.22-.06,12.84-.09h.57a115.61,115.61,0,0,1,12.33.64c.08,1.34.11,2.89.09,4.63a39,39,0,0,1-.33,4.82,11,11,0,0,0-2.21-.19H250Zm4.8,15.38c0-1.06,0-2.07,0-3,0-2.33-.07-4.23-.09-5.71,0-.68,0-1.3,0-1.86h.59a5.42,5.42,0,0,1,1.18.09c.22,0,.44.05.67.07-.28,1.18-.55,2.36-.81,3.51C251.19,169.4,250.7,171.72,250.26,173.93Zm28.36,17.56a15.7,15.7,0,0,1-3.16.3l-.86,0a24.38,24.38,0,0,1-4.15-.52h-.06a19.31,19.31,0,0,1-.7-2.32c-.23-.89-.45-1.81-.67-2.74s-.46-1.83-.71-2.69a14,14,0,0,0-.79-2.19,7.66,7.66,0,0,0-1.22-.13h-.76l-.73,0c-.27,0-.62,0-1.07,0a11.47,11.47,0,0,0-.7,2.29c-.18.88-.37,1.79-.55,2.75s-.38,1.88-.58,2.77a9.64,9.64,0,0,1-.85,2.38.13.13,0,0,0-.1,0,.12.12,0,0,1-.09,0,4.09,4.09,0,0,1-.85.06q-.61,0-1.59-.06c-.87-.05-2.06-.08-3.58-.08l-2.52,0a.17.17,0,0,1-.12-.06c.08-.28.22-1.08.43-2.38s.49-3,.85-5.06.8-4.46,1.31-7.17,1.11-5.58,1.8-8.63,1.45-6.22,2.26-9.52,1.71-6.56,2.68-9.82a6.67,6.67,0,0,1,.92-.06h1.28l2,0c.84,0,1.92-.09,3.27-.21.12.53.31,1.33.58,2.41s.55,2.3.85,3.66.63,2.81,1,4.36.68,3,1,4.45.63,2.73.92,3.91.51,2.11.67,2.8l4.57,21.35Zm23.21-31.11q-1.18,5.19-2.47,10.31T296.74,181q-1.33,5.16-2.81,10.46a14.79,14.79,0,0,0-1.52.12,20.09,20.09,0,0,1-2.32.13c-.89,0-1.8,0-2.71-.1a10.35,10.35,0,0,1-2.35-.39,200.49,200.49,0,0,1-4.51-20.28q-1.78-10.41-2.63-21v-.06a2.69,2.69,0,0,1,1.59-.61,20.92,20.92,0,0,1,2.62-.21H283c.61,0,1.19,0,1.77,0a10.6,10.6,0,0,1,1.76.18,24.42,24.42,0,0,1,.31,4q.06,2.75.3,6.58c.17,2.57.44,5.39.83,8.48a80.12,80.12,0,0,0,1.8,9.58q1.15-4.94,1.89-9.06c.49-2.74.91-5.28,1.28-7.59s.71-4.46,1-6.41.71-3.78,1.15-5.49c0-.08,0-.12.13-.12a10.7,10.7,0,0,0,2.13.27c.73,0,1.48,0,2.23,0s1.5,0,2.26,0a14.92,14.92,0,0,1,2.16.21Q303,155.2,301.83,160.38Zm32.93,27a16.86,16.86,0,0,1-.55,3.93h-2.75q-4.89,0-9.91.16c-1.3,0-2.59.07-3.86.07-2.91,0-5.74-.12-8.49-.34q0-5.31-.12-10.52t-.18-10.41q-.07-5.17,0-10.37t.36-10.43c1.59-.08,3.3-.15,5.16-.21s3.71-.11,5.58-.15l5.43-.12c1.74,0,3.29-.07,4.63-.07s2.42,0,3.24.07a4.81,4.81,0,0,1,1.22.12,20.81,20.81,0,0,1,.15,4.33c-.1,1.46-.15,2.91-.15,4.33v.06a23,23,0,0,1-3.94.52c-1,0-2,.07-3,.07h-1l-4,0c-1.34,0-2.68.06-4,.18h-.18l-.06.06a24.83,24.83,0,0,1-.15,3.63,9.49,9.49,0,0,0,.21,3.51l.06.06q1.83.12,3.72.12t3.78.06v.07a19.82,19.82,0,0,1,.19,4.14c-.08,1.39-.1,2.83-.06,4.33a8.65,8.65,0,0,1-2.08.28l-2.22,0c-.72,0-1.36,0-1.93.06a2.09,2.09,0,0,0-1.15.31,18.4,18.4,0,0,0-.22,4c.06,1.46.13,2.68.22,3.66l.06.06q4,0,7.93.21c1.65.1,3.34.14,5.06.14,1,0,2,0,3,0v.12C334.78,184.62,334.8,186,334.76,187.38Zm-.06-9.18h-.15c-.95,0-1.91,0-2.84,0-.76,0-1.53,0-2.29,0A5,5,0,0,0,331,174.4c0-1.36,0-2.67.06-3.9a26,26,0,0,0-.19-4.91,5,5,0,0,0-.74-2.23l.65,0a28.14,28.14,0,0,0,4.28-.54c0,.48,0,1,0,1.47.06,2.43.1,5,.12,7.48,0,2.24,0,4.4,0,6.51A5.67,5.67,0,0,0,334.7,178.2Zm29.67,13.26c-.79,0-1.6.07-2.41.07-1,0-2,0-2.95-.1H359c-.41-.93-.92-2.05-1.53-3.35s-1.28-2.67-2-4.09-1.53-2.83-2.38-4.21a37.91,37.91,0,0,0-2.56-3.66l-.13-.18a27.59,27.59,0,0,0-.18,3.44c0,1.37,0,2.77.09,4.21s.13,2.82.22,4.12.14,2.34.18,3.11a8.78,8.78,0,0,1-2.72.55c-1.11.08-2.22.13-3.32.15h-1.05c-.69,0-1.32,0-1.91,0l-1.06,0a3.45,3.45,0,0,0-.55,0,4.92,4.92,0,0,0,.18-1.68c0-1.11.06-2.59.06-4.42v-6.31q0-3.57,0-7.38t-.12-7.57c-.06-2.5-.12-4.79-.16-6.89s-.09-3.88-.15-5.37-.13-2.49-.21-3c2.28-.32,4.78-.63,7.5-.91a38.27,38.27,0,0,1,3.9-.2,43.44,43.44,0,0,1,4.64.26,12.68,12.68,0,0,1,6.47,2.07,13.66,13.66,0,0,1,4.45,4.7,13.08,13.08,0,0,1,1.68,6.19,12,12,0,0,1-1.8,6.56,11,11,0,0,1-3.08,3.66,8.74,8.74,0,0,1-4.85,1.65h-.31v.06c.86,1.5,1.79,3,2.81,4.48s2,3,3,4.48,1.91,3.05,2.8,4.61a31.34,31.34,0,0,1,2.26,4.85h.06C367.71,191.31,366.12,191.36,364.37,191.46Zm3.83-12.33c-.76-1.18-1.56-2.38-2.36-3.57l.56-.4a16.09,16.09,0,0,0,2.91-2.92c0,1.34,0,2.67.05,4,0,1.57.05,3.2.07,4.87C369,180.43,368.62,179.77,368.2,179.13Zm31.57-.51q0,1.77,0,3.42c0,1.1,0,2.21,0,3.35,0,.82,0,1.63,0,2.44s0,1.63,0,2.44v1.22c-.08,0-.27.1-.55.19a6.07,6.07,0,0,1-1.46.12c-.82,0-1.75-.05-2.81-.15a27.36,27.36,0,0,0-2.81-.16q-2-4.52-4-8.75t-3.39-8.14l-.61-1.83-.45-1.25c-.15-.39-.26-.58-.34-.58a6.74,6.74,0,0,0-.15,1.46q-.09,1.47-.15,3.72c-.05,1.51-.08,3.17-.1,5s0,3.6,0,5.31v2.71c0,.88,0,1.66.06,2.35a7.71,7.71,0,0,1-1.34.25c-.45,0-.89.06-1.34.06a22.85,22.85,0,0,1-3-.19,24.14,24.14,0,0,0-2.9-.18v-4.27q0-5.79-.09-11t-.09-11c0-2.81,0-5.58.12-8.33s.23-5.41.43-8a12.19,12.19,0,0,1,1.31-.18q.71-.06,1.44-.06l1.22,0c.56,0,1.13.06,1.7.12s1.07.13,1.5.21.64.17.64.25c.28.73.55,1.34.79,1.83s.48.95.7,1.4.47,1,.74,1.5.57,1.25.94,2.1c.08.2.26.59.55,1.16l1,2c.36.76.75,1.55,1.15,2.38s.79,1.59,1.13,2.26.64,1.24.89,1.71a2.72,2.72,0,0,0,.42.7c.13-.08.23-.49.31-1.22a19.73,19.73,0,0,0,.12-2.14c0-1.62,0-3.14-.09-4.54s-.09-2.84-.09-4.3c0-.86,0-1.72,0-2.59s.05-1.82.09-2.84a24.68,24.68,0,0,1,4.39-.37,19.55,19.55,0,0,1,4,.37v19.64q.06,2.56.06,5.19Z"/></svg>