<svg id="Layer_1" data-name="Layer 1" xmlns="http://www.w3.org/2000/svg" viewBox="0 0 448.51 244.13"><defs><style>.cls-1{fill:#d8d8d8;}.cls-2{fill:#676767;}.cls-3{fill:none;}.cls-3,.cls-4,.cls-5,.cls-7{stroke:#000;stroke-linecap:round;stroke-linejoin:round;}.cls-3,.cls-7{stroke-width:4px;}.cls-4,.cls-5,.cls-6,.cls-7{fill:#fff;}.cls-4{stroke-width:3.8px;}.cls-5{stroke-width:3.91px;}.cls-8{fill:#959595;}</style></defs><polygon class="cls-1" points="194.45 103.68 191.34 95.1 184.83 89.01 177.37 86.26 170.3 88.44 163.8 91.75 160.91 92.92 155.6 91.53 150.46 84.25 140.25 78.24 128.65 75.67 118.73 79.81 110.38 87.66 104.92 100.53 103.66 111.8 105.79 124.72 109.02 134.17 119.66 144.12 114.17 145.9 107.69 150.39 104.63 158.92 105.74 166.56 113.32 177.97 122.18 185.38 135.83 191.82 151.72 195.1 163.34 195.71 180.52 192.82 184.85 189.12 184.28 185.11 181.32 183.98 186.43 167.39 188.37 164.3 191.45 160.39 190.75 156.73 187.76 152.55 190.62 143.86 189.13 137.72 185.65 134.89 191.44 124.02 196.12 108.09 194.45 103.68"/><polygon class="cls-2" points="179.03 85.75 176.18 75.5 170.14 70.29 167.51 68.03 165.93 58.33 158.59 46.03 148.9 37.84 138.83 33.14 145.99 45.27 145.45 49.79 138.09 42.16 126.68 34.19 113.22 28.9 108.96 30.14 118.51 37.34 122.53 42.94 121.34 44.24 110.63 38.02 97.14 34.37 84.52 35.06 81.74 37.69 89.8 39.13 96.76 44.05 96.04 45.3 85.68 46.19 74.59 51.94 68.58 58.65 64.38 70.73 61.06 86.63 53.22 130.97 50.62 148.49 51.56 160.91 54 172.18 52.55 181.07 57.09 177.71 61.4 172 72.72 191.11 75.99 200.87 76.41 205.93 80.95 195.72 83.03 191.11 116.99 206.88 142.88 213.3 166.15 215.23 176.89 212.08 182.05 207.22 183.97 201.32 183.16 193.13 181.41 191.11 172.66 194.71 157.08 195.01 140.26 193.03 128.96 189.16 119.56 183.53 111.95 176.47 105.74 166.56 104.82 157.51 107.69 150.39 111.85 146.8 119.66 144.12 111.72 136.72 106.93 128.7 103.73 115 105.33 96.31 111.66 85.93 121.33 78.46 130.83 76.33 140.25 78.24 150.46 84.25 155.6 91.53 160.91 92.92 167 90.25 173.67 87.4 179.03 85.75"/><path class="cls-3" d="M179,85.75s-.73-16-14.36-17-36-4-36-4"/><path class="cls-3" d="M182,192.53s8.58,15.45-8.88,21.2S117,206.88,117,206.88s-22.75-8.79-35.12-15.77c0,0-1.55,11.79-6.63,16,0,0,3.33-8.67-3.79-18.16a89.92,89.92,0,0,1-10.62-18.26,15.08,15.08,0,0,1-8.28,10.39s2.38-5.33-.39-16.58C48,147.38,59,99.6,59,99.6s4-28.85,8.75-39.29,18-14.12,18-14.12,7.83-1.21,12.24-.8c0,0-7-9.54-18.36-7.43,0,0,17.76-12.45,44.26,8.13,0,0-2.31-10-16.86-17,0,0,15.56-3.92,39.74,21.07,0,0,.81-10.54-11.94-19.37,0,0,33.56,10.62,32.74,38.38"/><path class="cls-3" d="M142,153.69s-6-17,10.43-19.47a27.7,27.7,0,0,1,16.9,4.07s3.37-4.84,12.47-4a9.86,9.86,0,0,1,7.18,4c1.57,2.22,2.12,4.78,1.16,8.34a17.85,17.85,0,0,1-11.37,12c-6.53,2.34-17.53,4.27-35.23,2.29"/><path class="cls-3" d="M187.11,153.69s10.14,4.91,0,11.5L181.32,184c2.65-.67,4.79,3,3.53,5.13a11.13,11.13,0,0,1-6.3,4.47c-14.27,4-30.26,1.63-40.46-1.1a52.64,52.64,0,0,1-26.14-16c-4.38-5-8-11.19-7.32-17.55,1.53-15.27,16-14.13,16-14.13-20-13-16.83-35.82-16.83-35.82S103.68,85,123,77.79c14.46-5.44,25.59,5,30.25,10.58a10.25,10.25,0,0,0,13.6,2l.19-.14a16.85,16.85,0,0,1,21,1,24.25,24.25,0,0,1,5.18,6.93c7.45,14.51-7.06,35.7-7.06,35.7"/><polygon class="cls-1" points="77.52 107.98 70.67 100.39 61.19 96.87 52.63 98.82 47.98 106.9 47.98 115.65 51.03 124.31 56.15 131.34 64.47 136 70.55 137.66 76.99 134.16 79.35 125.42 74.51 127.87 77.2 121.38 80.08 115.65 72.72 118.93 75.23 112.26 77.52 107.98"/><path class="cls-3" d="M77.52,108S66.86,90,52.73,99.82c0,0-11.15,8.06-1.7,24.49s21.36,15,26,9.85"/><path class="cls-3" d="M73.74,111.82s-9.82-12.21-15.89-3.35A10.73,10.73,0,0,0,56,115.11c.21,3.68,2,9.38,10.38,12.42"/><path class="cls-3" d="M64.8,115.62s-.68-9.71,8.94-3.8"/><path class="cls-3" d="M80.56,103.68s-6.5,7.72-7.83,16.06c0,0,5.45-5.45,9-3.78,0,0-7,6.79-7.23,11.91,0,0,4.23-2.67,6.56-2.89,0,0-6.56,8.12-3.34,15.58"/><ellipse class="cls-4" cx="173.92" cy="112.5" rx="11.17" ry="15.03"/><ellipse class="cls-5" cx="135.29" cy="112.06" rx="14.6" ry="19.6"/><path d="M128.65,118.9c0,5.66,2.43,10.59,6,13.12,1.63,1.15,3.12-1.3,5.1-1.3,3.16,0,3.94-1.63,6-4.33s3.88-4.53,3.88-8.65c0-2.88,1.31-4.42.22-6.7-2-4.24-5.63-7.06-9.75-7.06C133.78,104,128.65,110.66,128.65,118.9Z"/><path d="M166,117.86a16.74,16.74,0,0,0,1.26,6.45c1,2.3,2.54,1.77,4.31,3a6.89,6.89,0,0,0,4.5,1.25c2.87,0,3.57-1.48,5.46-3.92s3.52-4.11,3.52-7.85c0-2.61,1.19-4,.2-6.08-1.84-3.84-5.11-6.4-8.84-6.4C170.68,104.33,166,110.39,166,117.86Z"/><ellipse class="cls-6" cx="172.54" cy="113.98" rx="4.12" ry="3.18" transform="translate(20.58 254.24) rotate(-76.16)"/><ellipse class="cls-6" cx="135.29" cy="113.98" rx="4.12" ry="3.18" transform="translate(-7.76 218.07) rotate(-76.16)"/><path d="M171.91,154.37c-.32-1.93-.9-8.26,5.09-9.8a8.4,8.4,0,0,1,3.63-.13c1.82.35,4.24,1.43,3.23,4.75,0,0-.69,2.43-7.65,3.74a7.38,7.38,0,0,0-3.83,1.6A.28.28,0,0,1,171.91,154.37Z"/><path d="M168.13,154.43c-.2-2.49-1.42-9.63-8.67-9.63a9.77,9.77,0,0,0-4,.85c-2,.9-4.45,2.81-2.38,6.32,0,0,1.46,2.59,9.77,2.16a8.83,8.83,0,0,1,4.67.7A.42.42,0,0,0,168.13,154.43Z"/><path class="cls-7" d="M187.11,165.19s-44.82,16.49-69.1-6.11a40.74,40.74,0,0,0,33.41,27.59c27,4,31.24-4.54,31.24-4.54Z"/><path class="cls-3" d="M123.94,157.7s-8.9-1.43-9.22,6.44"/><path d="M123.19,165.72c9.5,9.57,17.54,11.27,19.15,11.53l1.68-2.53a.55.55,0,0,1,.47-.22.51.51,0,0,1,.41.31l1.28,3.12c12.54,3.7,26.45,1.56,28.44,1.23l2.85-5.56a.48.48,0,0,1,.5-.26.49.49,0,0,1,.43.37l1,3.87,2.55-.51-.29,1.07-2.53.51a.5.5,0,0,1-.59-.37l-.77-3-2.36,4.59a.5.5,0,0,1-.35.27,76.22,76.22,0,0,1-12.35,1,60.18,60.18,0,0,1-17-2.25.49.49,0,0,1-.32-.29l-1-2.47-1.34,2a.48.48,0,0,1-.46.22c-.37,0-7.62-.8-17-8.95l-.37-.52-.28-.4-.32-.46-.25-.38-.16-.25-.12-.19-.14-.22-.11-.18-.14-.22-.12-.2-.23-.39Z"/><path class="cls-8" d="M251.79,138.28c-.31,0-.64,0-1,0a25.86,25.86,0,0,1-4.52-.56,2.55,2.55,0,0,1-1.93-1.58,24.68,24.68,0,0,1-.79-2.59c-.22-.9-.45-1.82-.67-2.77s-.44-1.75-.68-2.58l-.15-.5h-.19c0,.12-.06.24-.08.36-.18.86-.36,1.76-.54,2.71s-.39,1.93-.6,2.85a12.34,12.34,0,0,1-1.08,3,2.85,2.85,0,0,1-2,1.36,7,7,0,0,1-1.25.09q-.67,0-1.74-.06c-.81-.06-2-.08-3.43-.08l-2.48,0h0a2.67,2.67,0,0,1-1.95-.82,2.5,2.5,0,0,1-.61-2.43s.1-.42.36-2.08c.2-1.31.49-3,.86-5.11s.81-4.48,1.32-7.19,1.13-5.68,1.82-8.73,1.45-6.28,2.26-9.56,1.73-6.65,2.72-9.94a2.52,2.52,0,0,1,2.05-1.76,10.14,10.14,0,0,1,1.26-.08h1.28l2,0c.78,0,1.82-.09,3.1-.2h.23a2.49,2.49,0,0,1,2.43,1.93c.12.52.31,1.32.58,2.38s.55,2.33.86,3.71l1,4.36c.34,1.54.68,3,1,4.44s.63,2.71.91,3.88.51,2.12.67,2.81l4.59,21.41a2.24,2.24,0,0,1,.06.52,2.57,2.57,0,0,1-2,2.51A18.5,18.5,0,0,1,251.79,138.28Z"/><path d="M245.38,92.49c.12.52.31,1.33.58,2.4s.55,2.3.85,3.66.63,2.82,1,4.37.68,3,1,4.45.63,2.72.92,3.9.51,2.12.67,2.81L255,135.43v.06a15.83,15.83,0,0,1-3.17.29c-.28,0-.57,0-.86,0a24.53,24.53,0,0,1-4.15-.51h-.06a22,22,0,0,1-.7-2.32c-.23-.9-.45-1.81-.67-2.75s-.46-1.83-.7-2.68a14.8,14.8,0,0,0-.8-2.2,8.73,8.73,0,0,0-1.22-.12h-.76l-.73,0c-.27,0-.62,0-1.07,0a11.94,11.94,0,0,0-.7,2.29c-.18.87-.37,1.79-.55,2.74s-.38,1.89-.58,2.78a9.64,9.64,0,0,1-.85,2.38.12.12,0,0,0-.09,0,.17.17,0,0,1-.1,0,4,4,0,0,1-.85.06q-.61,0-1.59-.06c-.86-.05-2.06-.08-3.58-.08l-2.52,0a.17.17,0,0,1-.12-.06c.08-.29.22-1.08.43-2.38s.49-3,.85-5.06.81-4.47,1.31-7.17,1.11-5.58,1.8-8.63,1.45-6.22,2.26-9.52,1.71-6.57,2.69-9.82a6.42,6.42,0,0,1,.91-.06h1.28l2,0q1.26,0,3.27-.21m-4.31,25.6.77,0c.77,0,1.55,0,2.32,0-.41-3.49-.76-6.22-1.07-8.17a30.63,30.63,0,0,0-.79-4c-.15-.45-.29-.67-.43-.67s-.16.07-.24.21a7.49,7.49,0,0,0-.61,2.35c-.19,1.18-.39,2.66-.61,4.45s-.48,3.72-.77,5.79c.46,0,.94,0,1.43,0m4.31-30.61a3.4,3.4,0,0,0-.45,0c-1.23.11-2.22.17-2.94.19l-1.92,0h-1.28a12,12,0,0,0-1.61.11,5,5,0,0,0-4.09,3.51c-1,3.33-1.93,6.72-2.75,10.06s-1.58,6.53-2.28,9.61-1.32,6-1.84,8.81-.95,5.1-1.32,7.23-.66,3.83-.87,5.16-.29,1.75-.32,1.86a5,5,0,0,0,1.25,4.78,5.16,5.16,0,0,0,3.7,1.57h.08l2.44,0c1.41,0,2.51,0,3.27.07s1.38.07,1.9.07a9.66,9.66,0,0,0,1.64-.12,5.46,5.46,0,0,0,1.31-.38,5,5,0,0,0,2.5-2.28q.16-.3.3-.6a5,5,0,0,0,3.94,3,30.26,30.26,0,0,0,4.68.56c.36,0,.72,0,1.07,0a21.19,21.19,0,0,0,4.15-.39,5,5,0,0,0,4-4.9v-.06a4.7,4.7,0,0,0-.12-1.05L255.27,113a.36.36,0,0,1,0-.1c-.17-.7-.39-1.64-.68-2.83s-.58-2.44-.9-3.84-.66-2.9-1-4.43l-1-4.37c-.3-1.36-.6-2.63-.88-3.75s-.44-1.84-.56-2.35a5,5,0,0,0-4.87-3.88Z"/><path class="cls-8" d="M264.48,137.85c-.67,0-1.33,0-2,0-1,0-1.88-.1-2.63-.19a2.51,2.51,0,0,1-2.2-2.38c-.12-3-.19-6.28-.19-9.77V114.75c0-3.66,0-7.33,0-11s-.09-7.22-.21-10.53a2.51,2.51,0,0,1,1.85-2.51,37.92,37.92,0,0,1,5.85-1.05,35.12,35.12,0,0,1,3.54-.18c.95,0,1.9,0,2.84.12a30.59,30.59,0,0,1,6.26,1.16,18.17,18.17,0,0,1,5.77,2.83,16,16,0,0,1,4.24,4.81,15.62,15.62,0,0,1,1.91,7s0,1,0,1a7.49,7.49,0,0,1-.1,1.17,15.22,15.22,0,0,1-2.28,6.31,18,18,0,0,1-10.45,7.69,16,16,0,0,1-3.83.55v1.36c0,1,0,2.42,0,4.15s.07,4.09.15,7a.57.57,0,0,1,0,.13,2.51,2.51,0,0,1-1.8,2.4l-.2.06h0a12.31,12.31,0,0,1-2.68.43c-.92.06-1.88.11-2.87.13ZM271.16,104c0,.78,0,1.55,0,2.32s0,1.27.09,1.87h.12c.66,0,1.32-.06,1.95-.13a7.59,7.59,0,0,0,1.57-.35,1.8,1.8,0,0,0,.61-.33,2.09,2.09,0,0,0,.2-.5,1.63,1.63,0,0,0,0-.66,2,2,0,0,0-.27-.7,1.37,1.37,0,0,0-.44-.42,2.2,2.2,0,0,1-.25-.17,5,5,0,0,0-2.39-1,7,7,0,0,0-1.2-.1A1.62,1.62,0,0,1,271.16,104Z"/><path d="M268.47,92c.88,0,1.76,0,2.64.11a28.56,28.56,0,0,1,5.76,1.07,15.28,15.28,0,0,1,5,2.44,12.64,12.64,0,0,1,5.16,10v.88a4.79,4.79,0,0,1-.07.77,12.66,12.66,0,0,1-1.92,5.36,15.4,15.4,0,0,1-9,6.62,13.19,13.19,0,0,1-3.47.47,14.59,14.59,0,0,1-2.27-.19c0,.57.06,1.13.06,1.67v2.38c0,1,0,2.43,0,4.18s.07,4.11.16,7.08v.06a.13.13,0,0,0-.1,0,.12.12,0,0,1-.09,0,11.67,11.67,0,0,1-2.16.34c-.88.06-1.79.1-2.75.12h-.95c-.63,0-1.26,0-1.88,0-.94,0-1.75-.1-2.44-.19-.13-3-.19-6.19-.19-9.66V114.75q0-5.49,0-11t-.21-10.61a34.31,34.31,0,0,1,5.46-1,32.75,32.75,0,0,1,3.28-.17m.71,18.84h.19c.65-.05,1.34-.08,2.07-.1s1.45-.07,2.17-.15a9.69,9.69,0,0,0,2.07-.46,3.18,3.18,0,0,0,2.44-2.59,4.11,4.11,0,0,0,.06-1.71,4.23,4.23,0,0,0-.61-1.58,3.65,3.65,0,0,0-1.25-1.22,7.58,7.58,0,0,0-3.54-1.56,10,10,0,0,0-1.63-.13,9.71,9.71,0,0,0-2.33.28.27.27,0,0,0-.19.07c0,.73.06,1.5,0,2.31s0,1.63,0,2.44.06,1.6.12,2.35a8.88,8.88,0,0,0,.39,2.05M268.48,87a37.05,37.05,0,0,0-3.8.2,39.54,39.54,0,0,0-6.25,1.12,5,5,0,0,0-3.7,5c.12,3.29.19,6.81.21,10.46s0,7.36,0,11v10.71c0,3.53.07,6.85.19,9.87a5,5,0,0,0,4.41,4.76c.82.1,1.74.17,2.81.21.69,0,1.4,0,2.1,0h1.06c1,0,2-.07,3-.14a16.09,16.09,0,0,0,2.88-.43,5.68,5.68,0,0,0,1-.31,5,5,0,0,0,3.13-4.64v-.06a.66.66,0,0,0,0-.14c-.08-2.92-.13-5.27-.15-7,0-1.25,0-2.32,0-3.2a17.46,17.46,0,0,0,2-.42,20.39,20.39,0,0,0,11.9-8.76,17.89,17.89,0,0,0,2.66-7.35,10.17,10.17,0,0,0,.11-1.47v-.88c0-.09,0-.18,0-.26a17.68,17.68,0,0,0-7.16-13.72,20.56,20.56,0,0,0-6.55-3.23,34.9,34.9,0,0,0-6.76-1.26c-1-.08-2-.12-3-.12Zm.35,19.62Z"/><path class="cls-8" d="M300.82,138c-3,0-5.89-.11-8.69-.34a2.51,2.51,0,0,1-2.3-2.5c0-3.48,0-7-.12-10.46s-.14-7-.18-10.43,0-7,0-10.43.16-7,.37-10.54A2.5,2.5,0,0,1,292.27,91c1.6-.08,3.33-.15,5.2-.21s3.73-.11,5.61-.15l5.42-.13c1.77,0,3.34-.06,4.7-.06s2.49,0,3.35.07c1.13,0,3.45.17,3.59,2.39a23.31,23.31,0,0,1,.15,4.73c-.09,1.39-.14,2.79-.14,4.16a2.57,2.57,0,0,1-2,2.5,25.66,25.66,0,0,1-4.35.57c-1,0-2.07.08-3.1.08h-1.05q-2,0-4,0c-.59,0-1.2,0-1.8,0,0,.53-.07,1.07-.14,1.62,0,.3-.05.59-.05.88l1.57,0c1.28,0,2.57,0,3.86.06a2.49,2.49,0,0,1,2.41,2.36,23.36,23.36,0,0,1,.19,4.5c-.08,1.3-.1,2.68-.06,4.11a2.51,2.51,0,0,1-1.85,2.49,12,12,0,0,1-2.66.36l-2.29,0h-.8q0,.81,0,1.71,0,.72.06,1.35c1.95,0,3.88.09,5.79.2,1.6.08,3.26.13,4.92.13,1,0,1.94,0,2.92,0h.07a2.51,2.51,0,0,1,2.5,2.5v0c.08,1.34.1,2.76.06,4.2a19.55,19.55,0,0,1-.63,4.51,2.49,2.49,0,0,1-2.42,1.86h0l-2.73,0c-3.22,0-6.52.06-9.82.17C303.44,138,302.12,138,300.82,138Z"/><path d="M313.2,92.91c1.34,0,2.41,0,3.23.06a4.46,4.46,0,0,1,1.22.13,20.81,20.81,0,0,1,.15,4.33c-.1,1.46-.15,2.9-.15,4.33v.06a23.89,23.89,0,0,1-3.94.52c-1,0-2,.07-3,.07h-1c-1.34,0-2.69,0-4,0s-2.68.06-4,.18h-.19l-.06.06a24.83,24.83,0,0,1-.15,3.63,9.71,9.71,0,0,0,.21,3.51l.06.06q1.83.12,3.72.12c1.27,0,2.53,0,3.79.06v.06a20.64,20.64,0,0,1,.18,4.15c-.08,1.38-.1,2.83-.06,4.33a8.56,8.56,0,0,1-2.07.28l-2.23,0q-1.06,0-1.92.06a2.24,2.24,0,0,0-1.16.3,18.45,18.45,0,0,0-.22,4c.07,1.46.14,2.68.22,3.66l.06.06c2.68,0,5.33.07,7.93.21,1.65.09,3.34.14,5.06.14,1,0,2,0,3,0v.13q.12,2,.06,4.05a16.87,16.87,0,0,1-.55,3.94l-2.75,0q-4.89,0-9.9.17-2,.06-3.87.06-4.36,0-8.49-.34,0-5.3-.12-10.52t-.18-10.4q-.06-5.17,0-10.37t.36-10.43q2.39-.12,5.16-.21t5.58-.15l5.43-.13c1.75,0,3.29-.06,4.64-.06m0-5c-1.37,0-2.92,0-4.76.06L303,88.1q-2.83.06-5.64.15c-1.84.06-3.6.13-5.24.22a5,5,0,0,0-4.74,4.7c-.2,3.56-.33,7.15-.37,10.66s0,7,0,10.49.1,7,.18,10.46.12,6.94.12,10.4a5,5,0,0,0,4.59,5c2.87.23,5.86.35,8.9.35,1.32,0,2.68,0,4-.06,3.27-.11,6.55-.17,9.74-.17l2.7,0h0a5,5,0,0,0,4.83-3.72,21.68,21.68,0,0,0,.72-5.07c0-1.5,0-3-.06-4.36a5,5,0,0,0-5-5h-.15c-.95,0-1.9,0-2.84,0-.76,0-1.53,0-2.28,0a5,5,0,0,0,1.61-3.81c0-1.36,0-2.67.05-3.9a25.23,25.23,0,0,0-.19-4.91,4.87,4.87,0,0,0-.73-2.23l.64,0a27.58,27.58,0,0,0,4.78-.63,5,5,0,0,0,3.93-4.88v-.06c0-1.31.05-2.65.14-4a26.07,26.07,0,0,0-.19-5.38h0a5.07,5.07,0,0,0-4.76-4.33c-.26,0-.64,0-1.16-.08-.91,0-2.08-.07-3.48-.07Z"/><path class="cls-8" d="M237,194.05a2.49,2.49,0,0,1-2.42-1.89,10.9,10.9,0,0,1-.08-2.88c0-1.29.07-3.21.09-5.77s0-5.88-.06-9.85c-.05-3.55-.18-7.81-.38-12.67-.58-.05-1.16-.08-1.73-.09l-1.95,0a6.32,6.32,0,0,1-2.07-.26,2.45,2.45,0,0,1-1.44-1.24,5.78,5.78,0,0,1-.47-2.11c-.07-.71-.11-1.56-.13-2.53s0-1.93,0-3,0-1.88.09-2.77a2.69,2.69,0,0,1,0-.4,2.49,2.49,0,0,1,2.47-2.5l12.86-.1h.57a118.36,118.36,0,0,1,12.61.66,2.51,2.51,0,0,1,2.23,2.33c.08,1.4.11,3,.09,4.82a40,40,0,0,1-.36,5.13,2.52,2.52,0,0,1-2.47,2.16,3.05,3.05,0,0,1-.52-.05,8.13,8.13,0,0,0-1.7-.14h-.56l-2.53.09v.73q0,1.37,0,3.57c0,1.48.05,3.39.09,5.72s.08,5.15.12,8.43.1,7.12.18,11.55a.34.34,0,0,1,0,.1,2.57,2.57,0,0,1-2.09,2.53,21.11,21.11,0,0,1-2.77.25c-.89,0-1.78,0-2.68,0H239.4a12,12,0,0,0-2,.15A2.83,2.83,0,0,1,237,194.05Z"/><path d="M242.31,148.45a115.63,115.63,0,0,1,12.34.65c.08,1.34.11,2.88.09,4.63a39,39,0,0,1-.33,4.82,11,11,0,0,0-2.22-.19h-.65l-4.58.18h-.18a.12.12,0,0,1,0,.09.12.12,0,0,0,0,.09,7.26,7.26,0,0,0-.09,1q0,.65,0,2t0,3.6q0,2.24.09,5.73t.12,8.42q.06,4.92.19,11.56v.12a16.09,16.09,0,0,1-2.41.22c-.88,0-1.75,0-2.63,0H239.4a14.76,14.76,0,0,0-2.38.18,17,17,0,0,1,0-2.19c0-1.31.07-3.25.09-5.83s0-5.89-.06-9.91-.21-8.89-.46-14.58l-.06-.06a4.81,4.81,0,0,0-1.83-.46q-1.09-.09-2.19-.12l-2,0a4.23,4.23,0,0,1-1.28-.13A4.46,4.46,0,0,1,229,157c-.06-.66-.1-1.44-.12-2.35s0-1.9,0-3,0-2.08.12-3.05q0-.06,0-.06s0,0,0-.06l12.84-.1h.56m0-5h-.58l-12.87.1a5,5,0,0,0-5,5c0,.16,0,.31,0,.47-.06.87-.08,1.77-.08,2.7,0,1.13,0,2.13,0,3.07s.07,1.93.14,2.7a8.22,8.22,0,0,0,.73,3,5,5,0,0,0,2.87,2.48,8.65,8.65,0,0,0,2.87.39h1.27c.15,3.9.25,7.35.29,10.31.06,4,.08,7.25.06,9.8s-.05,4.46-.09,5.71a12.74,12.74,0,0,0,.15,3.58,5,5,0,0,0,4.85,3.77,4.54,4.54,0,0,0,.82-.07,10.4,10.4,0,0,1,1.56-.11H242c.92,0,1.83,0,2.75,0a23.19,23.19,0,0,0,3.11-.28,5,5,0,0,0,4.18-4.94V191s0-.06,0-.09c-.08-4.4-.14-8.28-.18-11.53s-.08-6.1-.12-8.44-.07-4.24-.09-5.72c0-.68,0-1.29,0-1.85h.58a6.66,6.66,0,0,1,1.19.08,4.45,4.45,0,0,0,1,.11,5,5,0,0,0,5-4.31,43.3,43.3,0,0,0,.38-5.45c0-1.86,0-3.54-.1-5a5,5,0,0,0-4.46-4.67,123.15,123.15,0,0,0-12.87-.67Z"/><path class="cls-8" d="M277,194.28c-.32,0-.64,0-1,0a25.87,25.87,0,0,1-4.51-.56,2.55,2.55,0,0,1-1.93-1.58,22.51,22.51,0,0,1-.79-2.59c-.23-.9-.45-1.82-.68-2.77s-.44-1.75-.67-2.58l-.15-.5h-.2c0,.12-.05.24-.08.36-.18.86-.36,1.76-.54,2.71s-.38,1.93-.59,2.85a12.35,12.35,0,0,1-1.09,3,2.82,2.82,0,0,1-2,1.36,7,7,0,0,1-1.25.09q-.67,0-1.74-.06c-.82-.06-2-.08-3.43-.08l-2.48,0h0a2.66,2.66,0,0,1-1.95-.82,2.48,2.48,0,0,1-.61-2.43s.1-.42.36-2.08c.2-1.31.49-3,.86-5.11s.8-4.48,1.31-7.19,1.13-5.68,1.82-8.73,1.46-6.28,2.27-9.56,1.73-6.65,2.72-9.94a2.52,2.52,0,0,1,2-1.76,10.43,10.43,0,0,1,1.27-.08h1.28l2,0c.77,0,1.82-.09,3.1-.2h.23a2.49,2.49,0,0,1,2.43,1.93c.12.52.31,1.32.57,2.38s.56,2.33.87,3.71l1,4.36c.35,1.54.68,3,1,4.44s.62,2.71.91,3.88.51,2.12.67,2.81l4.59,21.41a3,3,0,0,1,.05.52,2.56,2.56,0,0,1-2,2.51A18.4,18.4,0,0,1,277,194.28Z"/><path d="M270.56,148.49c.12.52.31,1.33.58,2.4s.54,2.3.85,3.66.63,2.82,1,4.37.69,3,1,4.45.63,2.72.92,3.9.5,2.12.67,2.81l4.57,21.35v.06a15.72,15.72,0,0,1-3.16.29c-.28,0-.57,0-.86,0a24.4,24.4,0,0,1-4.15-.51h-.06a19.89,19.89,0,0,1-.7-2.32c-.23-.9-.45-1.81-.68-2.75s-.45-1.83-.7-2.68a14.86,14.86,0,0,0-.79-2.2,8.87,8.87,0,0,0-1.22-.12h-.76l-.73,0c-.27,0-.62,0-1.07,0a11.27,11.27,0,0,0-.7,2.29c-.19.87-.37,1.79-.55,2.74s-.38,1.89-.58,2.78a9.65,9.65,0,0,1-.86,2.38.12.12,0,0,0-.09,0,.12.12,0,0,1-.09,0,4.09,4.09,0,0,1-.85.06q-.61,0-1.59-.06c-.87-.05-2.06-.08-3.58-.08l-2.52,0a.17.17,0,0,1-.12-.06c.08-.29.22-1.08.43-2.38s.48-3,.85-5.06.8-4.47,1.31-7.17,1.11-5.58,1.8-8.63,1.44-6.22,2.26-9.52,1.71-6.57,2.68-9.82a6.67,6.67,0,0,1,.92-.06h1.28l2,0q1.24,0,3.27-.21m-4.31,25.6.77,0c.77,0,1.54,0,2.32,0-.41-3.49-.77-6.22-1.07-8.17a32.52,32.52,0,0,0-.79-4c-.15-.45-.29-.67-.44-.67s-.16.07-.24.21a8.11,8.11,0,0,0-.61,2.35c-.18,1.18-.38,2.66-.61,4.45s-.47,3.72-.76,5.79c.46,0,.94.05,1.43.05m4.31-30.61-.46,0c-1.23.11-2.21.17-2.93.19l-1.92,0H264a12.12,12.12,0,0,0-1.62.11,5,5,0,0,0-4.09,3.51c-1,3.33-1.92,6.72-2.75,10.06s-1.58,6.53-2.27,9.61-1.32,6-1.84,8.81-1,5.1-1.32,7.23-.67,3.83-.87,5.16-.3,1.75-.32,1.86a5,5,0,0,0,1.25,4.78,5.15,5.15,0,0,0,3.7,1.57h.07l2.45,0c1.41,0,2.51,0,3.27.07s1.38.07,1.9.07a9.74,9.74,0,0,0,1.64-.12,5.26,5.26,0,0,0,1.3-.38,5,5,0,0,0,2.51-2.28q.16-.3.3-.6a5,5,0,0,0,3.94,3,30.11,30.11,0,0,0,4.68.56c.36,0,.72,0,1.07,0a21,21,0,0,0,4.14-.39,5,5,0,0,0,4-4.9v-.06a4.68,4.68,0,0,0-.11-1.05L280.45,169l0-.1c-.16-.7-.39-1.64-.67-2.83s-.58-2.44-.9-3.84-.66-2.9-1-4.43l-1-4.37c-.31-1.36-.6-2.63-.88-3.75s-.44-1.84-.56-2.35a5,5,0,0,0-4.87-3.88Z"/><path class="cls-8" d="M291.6,194.17c-.94,0-1.91,0-2.88-.09a12.44,12.44,0,0,1-2.93-.51,2.49,2.49,0,0,1-1.66-1.72,205.46,205.46,0,0,1-4.57-20.53c-1.19-7-2.08-14.09-2.65-21.17a1.34,1.34,0,0,1,0-.2,2.7,2.7,0,0,1,.6-1.69,4.92,4.92,0,0,1,3.12-1.45,22,22,0,0,1,2.93-.24h1c.64,0,1.27,0,1.88,0a12.86,12.86,0,0,1,2.26.25,2.51,2.51,0,0,1,1.85,1.94,28.64,28.64,0,0,1,.35,4.4c0,1.78.14,4,.3,6.48.08,1.31.2,2.71.34,4.18.17-1,.34-2,.49-3,.37-2.32.71-4.46,1-6.42s.72-3.83,1.17-5.57a2.58,2.58,0,0,1,2.58-2.13,2.76,2.76,0,0,1,.57.06A7.28,7.28,0,0,0,299,147q1.06,0,2.16,0c.77,0,1.55,0,2.32,0a18.38,18.38,0,0,1,2.53.25,2.51,2.51,0,0,1,2,2.94c-.7,3.64-1.46,7.24-2.25,10.7s-1.62,6.92-2.48,10.36-1.73,6.85-2.63,10.3-1.84,7-2.82,10.49a2.49,2.49,0,0,1-2.41,1.84c-.1,0-.42,0-1.23.1A21.09,21.09,0,0,1,291.6,194.17Z"/><path d="M284.53,149.05c.6,0,1.19,0,1.76,0a10.63,10.63,0,0,1,1.77.18,25.48,25.48,0,0,1,.31,4q.06,2.74.3,6.59t.83,8.48a80.49,80.49,0,0,0,1.8,9.58q1.15-4.95,1.89-9.06t1.28-7.6c.36-2.31.71-4.45,1-6.4s.72-3.78,1.16-5.49c0-.08,0-.12.13-.12a10.7,10.7,0,0,0,2.13.27c.73,0,1.47,0,2.23,0s1.5,0,2.25,0a13.63,13.63,0,0,1,2.17.22q-1,5.43-2.23,10.61t-2.47,10.31q-1.28,5.13-2.62,10.28t-2.81,10.46a14.79,14.79,0,0,0-1.52.12,20.37,20.37,0,0,1-2.32.12c-.89,0-1.8,0-2.71-.09a9.79,9.79,0,0,1-2.35-.4A202,202,0,0,1,282,170.9q-1.77-10.4-2.62-21v-.06a2.59,2.59,0,0,1,1.59-.61,22.91,22.91,0,0,1,2.62-.22h.92m0-5-1,0a25.49,25.49,0,0,0-3.26.26,7.48,7.48,0,0,0-4.63,2.3,5,5,0,0,0-1.21,3.26V150c0,.13,0,.27,0,.4.58,7.15,1.48,14.35,2.67,21.39a208.31,208.31,0,0,0,4.63,20.78A5,5,0,0,0,285,196a15.42,15.42,0,0,0,3.51.61c1,.07,2.05.1,3.05.1a26,26,0,0,0,2.9-.15,8.93,8.93,0,0,1,.95-.09,5,5,0,0,0,4.81-3.67c1-3.54,1.93-7.08,2.83-10.53s1.79-7,2.63-10.33,1.7-7,2.5-10.4,1.56-7.12,2.26-10.8a5,5,0,0,0-4-5.86,20.64,20.64,0,0,0-2.9-.29l-2.39,0c-.71,0-1.4,0-2.09,0a5.92,5.92,0,0,1-1.13-.14,4.86,4.86,0,0,0-1.14-.13,5.12,5.12,0,0,0-4.42,2.52,5,5,0,0,0-3.1-2.31,14.13,14.13,0,0,0-2.74-.33c-.65,0-1.32,0-2,0Z"/><path class="cls-8" d="M319.2,194c-3,0-5.9-.11-8.7-.34a2.51,2.51,0,0,1-2.29-2.5c0-3.48,0-7-.12-10.46s-.15-7-.19-10.43,0-7,0-10.43.17-7,.37-10.54a2.52,2.52,0,0,1,2.37-2.36c1.6-.08,3.33-.15,5.2-.21s3.73-.11,5.61-.15l5.43-.13c1.77,0,3.33-.06,4.69-.06s2.49,0,3.36.07c1.13.05,3.44.17,3.59,2.39a23.31,23.31,0,0,1,.15,4.73c-.1,1.39-.15,2.79-.15,4.16a2.56,2.56,0,0,1-2,2.5,25.78,25.78,0,0,1-4.36.57c-1,0-2.07.08-3.1.08h-1.05c-1.32,0-2.65,0-4,0-.6,0-1.2,0-1.8,0,0,.53-.08,1.07-.14,1.62,0,.3-.05.59-.06.88l1.57,0c1.29,0,2.57,0,3.86.06a2.51,2.51,0,0,1,2.42,2.36,22.58,22.58,0,0,1,.18,4.5c-.08,1.3-.1,2.68-.06,4.11a2.49,2.49,0,0,1-1.85,2.49,11.86,11.86,0,0,1-2.65.36l-2.3,0h-.79a16.25,16.25,0,0,0,0,1.71q0,.72.06,1.35c1.94,0,3.88.09,5.78.2,1.6.08,3.26.13,4.93.13,1,0,1.93,0,2.91,0h.08a2.51,2.51,0,0,1,2.5,2.5v.05c.08,1.34.1,2.76.06,4.2a19.55,19.55,0,0,1-.64,4.51,2.49,2.49,0,0,1-2.41,1.86h0l-2.72,0c-3.22,0-6.53.06-9.83.17C321.81,194,320.5,194,319.2,194Z"/><path d="M331.57,148.91c1.34,0,2.42,0,3.23.06a4.37,4.37,0,0,1,1.22.13,20.14,20.14,0,0,1,.16,4.33c-.11,1.46-.16,2.9-.16,4.33v.06a23.77,23.77,0,0,1-3.93.52c-1,0-2,.07-3,.07h-1q-2,0-4,0c-1.34,0-2.69.06-4,.18h-.18l-.06.06a24.83,24.83,0,0,1-.15,3.63,9.29,9.29,0,0,0,.21,3.51l.06.06q1.83.12,3.72.12t3.78.06v.06a19.94,19.94,0,0,1,.19,4.15c-.09,1.38-.11,2.83-.06,4.33a8.65,8.65,0,0,1-2.08.28l-2.23,0q-1.07,0-1.92.06a2.27,2.27,0,0,0-1.16.3,19.16,19.16,0,0,0-.21,4q.09,2.19.21,3.66l.07.06q4,0,7.93.21c1.65.09,3.34.14,5.06.14,1,0,2,0,3-.05v.13q.12,2,.06,4.05a17.42,17.42,0,0,1-.55,3.94l-2.75,0q-4.89,0-9.91.17c-1.3,0-2.59.06-3.86.06q-4.38,0-8.49-.34,0-5.3-.12-10.52c-.08-3.47-.15-6.94-.19-10.4s0-6.91,0-10.37.17-6.93.37-10.43c1.59-.08,3.3-.15,5.15-.21s3.71-.11,5.59-.15l5.43-.13c1.74,0,3.29-.06,4.63-.06m0-5c-1.36,0-2.92,0-4.75.06l-5.42.13q-2.83.06-5.64.15c-1.84.06-3.61.13-5.24.22a5,5,0,0,0-4.74,4.7c-.21,3.56-.33,7.15-.38,10.66s0,7,0,10.49.11,7,.19,10.46.12,6.94.12,10.4a5,5,0,0,0,4.59,5c2.87.23,5.86.35,8.9.35,1.32,0,2.67,0,4-.06,3.27-.11,6.55-.17,9.74-.17l2.7,0h.05a5,5,0,0,0,4.83-3.71,23,23,0,0,0,.72-5.08c0-1.5,0-3-.06-4.36a5,5,0,0,0-5-5h-.15c-.95,0-1.91,0-2.84,0-.77,0-1.53,0-2.29,0a5,5,0,0,0,1.61-3.81c0-1.36,0-2.67.06-3.9a26,26,0,0,0-.19-4.91,5,5,0,0,0-.74-2.23l.65,0a27.46,27.46,0,0,0,4.77-.63,5,5,0,0,0,3.93-4.88v-.06c0-1.31.05-2.65.14-4a24.75,24.75,0,0,0-.19-5.38h0a5.06,5.06,0,0,0-4.75-4.33c-.26,0-.65-.05-1.16-.08-.92,0-2.09-.07-3.49-.07Z"/><path class="cls-8" d="M345.06,194c-.72,0-1.39,0-2,0l-.95,0h-.19a2.22,2.22,0,0,1-.37,0,2.5,2.5,0,0,1-2.48-2.26,2.41,2.41,0,0,1,.12-1c0-.17,0-.46.05-1,0-1.1.06-2.56.06-4.33v-6.31q0-3.57,0-7.36t-.12-7.53c-.06-2.5-.12-4.8-.16-6.9s-.09-3.85-.15-5.32c-.07-1.81-.15-2.49-.18-2.74a2.5,2.5,0,0,1,.46-1.87,2.46,2.46,0,0,1,1.65-1c2.31-.33,4.86-.64,7.6-.93a40.46,40.46,0,0,1,4.15-.21,47.24,47.24,0,0,1,4.85.26A15.26,15.26,0,0,1,365,148a16.31,16.31,0,0,1,5.26,5.56,15.77,15.77,0,0,1,2,7.35,14.49,14.49,0,0,1-2.12,7.85,13.52,13.52,0,0,1-3.75,4.43,10.09,10.09,0,0,1-2.69,1.45c.29.45.59.89.89,1.34q1.55,2.25,3,4.53c1,1.53,2,3.12,2.88,4.73a33.28,33.28,0,0,1,2.32,4.91,2.49,2.49,0,0,1-2.17,3.68c-1.35,0-2.91.05-4.61.15-.84,0-1.7.07-2.56.07-1,0-2.06,0-3.1-.11a2.59,2.59,0,0,1-2.21-1.49c-.4-.92-.9-2-1.49-3.3s-1.26-2.61-2-4l-.39-.75c.05,1.1.11,2.16.17,3.17.08,1.31.14,2.36.19,3.14a2.51,2.51,0,0,1-1.55,2.44,11.27,11.27,0,0,1-3.49.73c-1.13.09-2.3.14-3.45.16Zm8.47-31.45h.56a12.66,12.66,0,0,0,2-.15.25.25,0,0,0,.2-.14,2,2,0,0,0,.35-.94,2.88,2.88,0,0,0-.14-1.22,1.17,1.17,0,0,0-.39-.6l-.13-.12a2,2,0,0,0-1.45-.48h-.18a10.46,10.46,0,0,0-1.72.24c0,.68,0,1.36,0,2,0,.45,0,.88,0,1.31Z"/><path d="M352.51,147.74a41,41,0,0,1,4.65.26,12.71,12.71,0,0,1,6.47,2.07,13.66,13.66,0,0,1,4.45,4.7,13,13,0,0,1,1.68,6.19,12,12,0,0,1-1.8,6.56,11.16,11.16,0,0,1-3.08,3.66,8.74,8.74,0,0,1-4.85,1.64h-.31v.07c.86,1.5,1.79,3,2.81,4.48s2,3,3,4.48,1.91,3,2.8,4.61a30.91,30.91,0,0,1,2.26,4.85h.06c-1.42,0-3,.05-4.76.15-.79,0-1.6.07-2.41.07-1,0-2,0-3-.1h-.07c-.4-.94-.91-2.05-1.52-3.36s-1.28-2.66-2-4.08-1.53-2.83-2.38-4.21a37.91,37.91,0,0,0-2.56-3.66l-.13-.19a27.87,27.87,0,0,0-.18,3.45c0,1.36,0,2.77.09,4.21s.13,2.82.22,4.12.14,2.34.18,3.11a9.08,9.08,0,0,1-2.72.55c-1.11.08-2.22.13-3.32.15h-1.06c-.68,0-1.31,0-1.9,0l-1.06,0a3.37,3.37,0,0,0-.55,0,4.92,4.92,0,0,0,.18-1.68c0-1.12.06-2.59.06-4.42v-6.31q0-3.57,0-7.38t-.12-7.57c-.06-2.5-.12-4.8-.16-6.89s-.09-3.88-.15-5.37-.13-2.49-.21-3c2.27-.32,4.78-.63,7.5-.91a35.54,35.54,0,0,1,3.89-.2m-2.18,17.15h.06c.93.09,1.95.15,3.05.19h.65a14.94,14.94,0,0,0,2.46-.2,2.75,2.75,0,0,0,1.8-1.19,4.45,4.45,0,0,0,.76-2.07,5.49,5.49,0,0,0-.24-2.26,3.72,3.72,0,0,0-1.22-1.8,4.51,4.51,0,0,0-3.13-1.13h-.29a12.82,12.82,0,0,0-4.21.94c0,.53.07,1.13.1,1.8s0,1.35,0,2,0,1.37,0,2a11.38,11.38,0,0,0,.15,1.64m20.31,26.42h0m-29.1.18h0m11-48.75a42.75,42.75,0,0,0-4.42.22c-2.77.29-5.36.61-7.69.94a5,5,0,0,0-4.23,5.71s.08.57.16,2.47c.05,1.42.1,3.19.14,5.26s.1,4.4.16,6.91.1,4.95.12,7.49,0,5,0,7.34v6.31c0,1.74,0,3.17-.06,4.24,0,.27,0,.47,0,.61a5,5,0,0,0,4.84,6.25,4.93,4.93,0,0,0,.55,0h0l.83,0c.66,0,1.38.05,2.13.05h1.15c1.2,0,2.41-.08,3.6-.17a13.49,13.49,0,0,0,4.25-.91,5,5,0,0,0,2-1.55,5,5,0,0,0,4.23,2.54c1.05.06,2.11.1,3.14.1s1.81,0,2.7-.08c1.66-.09,3.16-.14,4.47-.14h0a5,5,0,0,0,5-5,4.93,4.93,0,0,0-.65-2.48,37.78,37.78,0,0,0-2.32-4.85c-.95-1.65-1.94-3.28-3-4.85-.76-1.18-1.56-2.38-2.37-3.57.2-.13.38-.27.57-.41a16,16,0,0,0,4.41-5.18,16.94,16.94,0,0,0,2.43-9.15,18,18,0,0,0-2.32-8.51,18.61,18.61,0,0,0-6.05-6.41,17.64,17.64,0,0,0-8.81-2.89,48.46,48.46,0,0,0-5.05-.27Z"/><path class="cls-8" d="M399.27,194.3c-.9,0-1.89-.06-3-.17-1-.09-1.83-.14-2.57-.14a2.5,2.5,0,0,1-2.28-1.48c-1.32-3-2.66-5.89-4-8.71-.14-.32-.29-.64-.43-1,0,1.22,0,2.41,0,3.58v2.71c0,.83,0,1.57.06,2.2a2.5,2.5,0,0,1-1.84,2.56,9.82,9.82,0,0,1-1.77.32c-.53.05-1.06.08-1.57.08a25.72,25.72,0,0,1-3.26-.21,21.33,21.33,0,0,0-2.6-.16,2.5,2.5,0,0,1-2.5-2.5v-4.27c0-3.84,0-7.54-.09-11s-.09-7.21-.09-11c0-2.84,0-5.67.12-8.4s.23-5.52.44-8.15a2.49,2.49,0,0,1,2-2.25,14.33,14.33,0,0,1,1.58-.22c.55-.05,1.1-.07,1.65-.07l1.31,0c.63,0,1.26.07,1.89.13s1.2.15,1.69.25c1.75.33,2.38,1.22,2.59,2,.22.56.43,1,.62,1.42l.7,1.4.75,1.53c.27.57.6,1.31,1,2.2.09.24.25.55.48,1a2.12,2.12,0,0,1,.11.21c0-.75,0-1.5,0-2.27s0-1.75,0-2.65.05-1.84.09-2.87a2.52,2.52,0,0,1,2.06-2.37,28.79,28.79,0,0,1,4.83-.4,22.31,22.31,0,0,1,4.53.42,2.5,2.5,0,0,1,2,2.45v19.64c0,1.67.06,3.42.06,5.18v5.25c0,1.19,0,2.35,0,3.46s0,2.19,0,3.31c0,.79,0,1.58,0,2.38s0,1.67,0,2.5v1.22a2.51,2.51,0,0,1-1.4,2.25,6.94,6.94,0,0,1-1,.34A8,8,0,0,1,399.27,194.3Z"/><path d="M397.19,148.18a19.55,19.55,0,0,1,4,.37v19.64c0,1.71.06,3.43.06,5.18v5.25q0,1.77,0,3.42c0,1.09,0,2.21,0,3.35,0,.81,0,1.63,0,2.44s0,1.63,0,2.44v1.22a4.3,4.3,0,0,1-.55.18,6,6,0,0,1-1.46.13c-.82,0-1.75-.06-2.81-.16s-2-.15-2.81-.15q-2-4.52-4-8.75c-1.32-2.83-2.45-5.54-3.39-8.15l-.61-1.83-.45-1.25c-.15-.38-.26-.58-.34-.58a6.92,6.92,0,0,0-.15,1.47c-.06,1-.12,2.21-.16,3.72s-.07,3.17-.09,5,0,3.6,0,5.31v2.71c0,.88,0,1.66.06,2.35a7.69,7.69,0,0,1-1.34.24c-.45,0-.89.07-1.34.07a24.77,24.77,0,0,1-3-.19,24.26,24.26,0,0,0-2.9-.18v-4.27q0-5.79-.09-11t-.09-11c0-2.81,0-5.58.12-8.33s.23-5.42.43-8a12.19,12.19,0,0,1,1.31-.18c.47,0,.95-.06,1.43-.06l1.22,0q.85,0,1.71.12t1.5.21c.42.08.64.17.64.25.28.73.55,1.34.79,1.83s.48.95.7,1.4.47.94.73,1.49.58,1.25.95,2.11c.08.2.26.59.55,1.16s.61,1.23,1,2l1.16,2.38c.41.83.79,1.58,1.13,2.26s.64,1.24.89,1.7a2.68,2.68,0,0,0,.42.71c.13-.09.23-.49.31-1.23a19.55,19.55,0,0,0,.12-2.13c0-1.63,0-3.14-.09-4.54s-.09-2.84-.09-4.31c0-.85,0-1.71,0-2.59s.05-1.82.09-2.83a24.68,24.68,0,0,1,4.39-.37m0-5a30.68,30.68,0,0,0-5.26.44,5,5,0,0,0-3.63,2.74,5.62,5.62,0,0,0-3.86-2.36c-.57-.11-1.21-.2-1.9-.27s-1.37-.12-2.06-.15l-1.41,0c-.62,0-1.24,0-1.86.08a14.63,14.63,0,0,0-1.86.26,5,5,0,0,0-4,4.51c-.21,2.66-.36,5.44-.45,8.26s-.12,5.61-.12,8.48c0,3.82,0,7.55.09,11.07s.09,7.13.09,10.95v4.27a5,5,0,0,0,5,5,18.32,18.32,0,0,1,2.29.15,31,31,0,0,0,3.57.22c.59,0,1.19,0,1.79-.09a12.07,12.07,0,0,0,2.21-.4,5,5,0,0,0,3.26-2.8v0a5,5,0,0,0,4.56,3c.66,0,1.44,0,2.33.13,1.24.12,2.31.18,3.29.18a10.07,10.07,0,0,0,2.83-.32,7.83,7.83,0,0,0,1.37-.5,5,5,0,0,0,2.81-4.49v-1.22c0-.85,0-1.71,0-2.56s0-1.55,0-2.32c0-1.11,0-2.19,0-3.26s0-2.3,0-3.51v-5.25c0-1.73,0-3.49-.06-5.24V148.55a5,5,0,0,0-4-4.9,25.19,25.19,0,0,0-5-.47Z"/></svg>