<svg id="Layer_1" data-name="Layer 1" xmlns="http://www.w3.org/2000/svg" viewBox="0 0 213.94 199.24"><defs><style>.cls-1{fill:#959595;}</style></defs><path class="cls-1" d="M43.85,96l-1,0a26.86,26.86,0,0,1-4.51-.56,2.55,2.55,0,0,1-1.93-1.58,23.14,23.14,0,0,1-.79-2.59c-.23-.9-.45-1.82-.68-2.77s-.44-1.76-.67-2.58l-.15-.5H34c0,.12-.05.24-.08.36q-.27,1.29-.54,2.7c-.19,1-.38,1.94-.59,2.86a12.35,12.35,0,0,1-1.09,3,2.49,2.49,0,0,1-1.33,1.17,2.94,2.94,0,0,1-.66.19,7,7,0,0,1-1.25.09c-.45,0-1,0-1.74-.07s-2-.07-3.43-.07c-.75,0-1.58,0-2.48,0h0a2.66,2.66,0,0,1-2-.82,2.48,2.48,0,0,1-.61-2.43c0-.05.1-.42.36-2.08.2-1.31.49-3,.86-5.11s.8-4.48,1.31-7.2,1.13-5.68,1.82-8.72S24,63,24.82,59.76s1.73-6.65,2.72-9.94a2.5,2.5,0,0,1,2-1.76A10.43,10.43,0,0,1,30.85,48h1.28l2,0c.77,0,1.82-.09,3.1-.21h.23a2.5,2.5,0,0,1,2.43,1.94q.18.78.57,2.37t.87,3.72l1,4.36c.35,1.54.68,3,1,4.44s.62,2.7.91,3.87.51,2.13.67,2.82l4.59,21.4a3.17,3.17,0,0,1,0,.53,2.56,2.56,0,0,1-2,2.51A18.4,18.4,0,0,1,43.85,96Z"/><path d="M37.44,50.23c.12.53.31,1.34.58,2.41s.54,2.3.85,3.66.63,2.82,1,4.36.69,3,1,4.46.63,2.72.92,3.9.5,2.12.67,2.81L47,93.18v.06a16.49,16.49,0,0,1-3.16.29l-.86,0A23.42,23.42,0,0,1,38.84,93h-.06a19.68,19.68,0,0,1-.7-2.31c-.23-.9-.45-1.81-.68-2.75s-.45-1.83-.7-2.68a14.86,14.86,0,0,0-.79-2.2,8.87,8.87,0,0,0-1.22-.12h-.76l-.73,0c-.27,0-.62,0-1.07,0a11.08,11.08,0,0,0-.7,2.29c-.19.87-.37,1.79-.55,2.74s-.38,1.88-.58,2.78a9.8,9.8,0,0,1-.86,2.38.12.12,0,0,0-.09,0,.12.12,0,0,1-.09,0,4.09,4.09,0,0,1-.85.06q-.61,0-1.59-.06c-.87-.06-2.06-.08-3.58-.08-.76,0-1.6,0-2.52,0a.17.17,0,0,1-.12-.06c.08-.29.22-1.08.43-2.38s.48-3,.85-5.07.8-4.46,1.31-7.16,1.11-5.59,1.8-8.64,1.44-6.22,2.26-9.51,1.71-6.57,2.68-9.82a6.67,6.67,0,0,1,.92-.06h1.28l2,0c.83,0,1.92-.1,3.27-.22m-4.31,25.6h.77c.77,0,1.54,0,2.32,0q-.61-5.25-1.07-8.17a30.38,30.38,0,0,0-.8-4c-.14-.44-.28-.66-.43-.66s-.16.07-.24.21a8,8,0,0,0-.61,2.34c-.18,1.18-.38,2.67-.61,4.46s-.47,3.72-.76,5.79c.46,0,.94,0,1.43,0m4.31-30.6-.46,0c-1.23.12-2.21.18-2.93.2l-1.92,0H30.85a10.66,10.66,0,0,0-1.62.11,5,5,0,0,0-4.09,3.51c-1,3.33-1.92,6.71-2.75,10.06s-1.58,6.53-2.27,9.61-1.32,6-1.84,8.81-1,5.1-1.32,7.22-.67,3.84-.87,5.17-.3,1.75-.32,1.85A5,5,0,0,0,17,96.61a5.15,5.15,0,0,0,3.7,1.57h.07c.9,0,1.71,0,2.45,0,1.41,0,2.51,0,3.27.07s1.38.07,1.9.07a9.74,9.74,0,0,0,1.64-.12,5.26,5.26,0,0,0,1.3-.38,5,5,0,0,0,2.51-2.28q.16-.3.3-.6a5,5,0,0,0,3.94,3,30.11,30.11,0,0,0,4.68.56l1.07,0A21,21,0,0,0,48,98.14a5,5,0,0,0,4-4.9v-.06a4.57,4.57,0,0,0-.11-1.05L47.33,70.78l0-.1c-.16-.7-.39-1.64-.67-2.83s-.58-2.44-.9-3.85-.66-2.89-1-4.43l-1-4.36c-.31-1.37-.6-2.63-.88-3.76s-.44-1.83-.56-2.34a5,5,0,0,0-4.87-3.88Z"/><path class="cls-1" d="M56.54,95.6c-.67,0-1.34,0-2,0-1,0-1.87-.11-2.62-.2A2.51,2.51,0,0,1,49.71,93c-.12-3-.18-6.27-.18-9.77V72.5c0-3.66,0-7.33,0-11s-.09-7.22-.21-10.54a2.49,2.49,0,0,1,1.85-2.5,37.7,37.7,0,0,1,5.85-1,35,35,0,0,1,3.54-.18c.94,0,1.9,0,2.84.11a32,32,0,0,1,6.26,1.16,18,18,0,0,1,5.76,2.84,15.84,15.84,0,0,1,4.24,4.81,15.62,15.62,0,0,1,1.92,7v1a7.49,7.49,0,0,1-.09,1.17,15.36,15.36,0,0,1-2.28,6.31,18,18,0,0,1-10.45,7.68,15.61,15.61,0,0,1-3.83.55v1.37c0,1,0,2.41,0,4.15s.07,4.09.15,7v.13A2.51,2.51,0,0,1,63.29,95l-.2.06h0a13.66,13.66,0,0,1-2.68.43c-.92.06-1.88.1-2.87.12Zm6.68-33.84c0,.78,0,1.55,0,2.32s.05,1.26.09,1.87h.12c.66,0,1.31-.06,1.95-.13A8.3,8.3,0,0,0,67,65.46a1.89,1.89,0,0,0,.61-.33,1.86,1.86,0,0,0,.19-.5,1.48,1.48,0,0,0,0-.66,2.21,2.21,0,0,0-.27-.7,1.31,1.31,0,0,0-.45-.42l-.24-.17a5,5,0,0,0-2.39-1,7,7,0,0,0-1.2-.11C63.23,61.61,63.22,61.69,63.22,61.76Z"/><path d="M60.53,49.7c.88,0,1.76,0,2.63.11a28.64,28.64,0,0,1,5.77,1.06,15.79,15.79,0,0,1,5,2.44,13.33,13.33,0,0,1,3.57,4.06,13.17,13.17,0,0,1,1.58,5.92v.88a4.59,4.59,0,0,1-.06.76,12.66,12.66,0,0,1-1.92,5.37,15.39,15.39,0,0,1-9,6.62,13.12,13.12,0,0,1-3.46.47,13.48,13.48,0,0,1-2.27-.2q.06.86.06,1.68v2.38c0,1,0,2.43,0,4.18s.07,4.11.15,7.08v.06a.12.12,0,0,0-.09,0,.12.12,0,0,1-.09,0,11,11,0,0,1-2.17.33c-.87.06-1.79.11-2.74.13h-1c-.64,0-1.26,0-1.89,0-.93,0-1.75-.1-2.44-.18Q52,88.42,52,83.2V72.5q0-5.49,0-11t-.21-10.62a35.08,35.08,0,0,1,5.46-1,30,30,0,0,1,3.28-.17m.71,18.83h.18c.65,0,1.35-.07,2.08-.09s1.45-.07,2.16-.15a9.78,9.78,0,0,0,2.08-.46,4.35,4.35,0,0,0,1.74-1.07,4.51,4.51,0,0,0,.7-1.52,4.11,4.11,0,0,0,.06-1.71,4.53,4.53,0,0,0-.61-1.59,3.94,3.94,0,0,0-1.25-1.22,7.57,7.57,0,0,0-3.54-1.55A10.06,10.06,0,0,0,63.21,59a9.66,9.66,0,0,0-2.33.29.25.25,0,0,0-.19.06c0,.73.05,1.51,0,2.32s0,1.63,0,2.44.06,1.6.12,2.35a9.34,9.34,0,0,0,.4,2M60.53,44.7a37.19,37.19,0,0,0-3.8.19A40.36,40.36,0,0,0,50.49,46a5,5,0,0,0-3.7,5c.12,3.3.19,6.82.21,10.47s0,7.36,0,11V83.2c0,3.53.06,6.86.19,9.88a5,5,0,0,0,4.4,4.76c.83.09,1.75.16,2.82.21.69,0,1.4,0,2.1,0l1.06,0c1,0,2-.06,3-.13a17,17,0,0,0,2.89-.43,5.21,5.21,0,0,0,4.11-5v-.2c-.08-2.92-.13-5.27-.15-7,0-1.25,0-2.32,0-3.2q1-.17,2-.42A20.56,20.56,0,0,0,81.29,73a17.78,17.78,0,0,0,2.65-7.35,9,9,0,0,0,.11-1.47V63a17.68,17.68,0,0,0-7.16-13.71,20.51,20.51,0,0,0-6.56-3.23,33.2,33.2,0,0,0-6.76-1.26c-1-.08-2-.12-3-.12Zm.35,19.62Z"/><path class="cls-1" d="M92.88,95.77c-3,0-5.9-.12-8.69-.35a2.5,2.5,0,0,1-2.3-2.49c0-3.49,0-7-.12-10.46s-.14-7-.18-10.43,0-7,0-10.43.16-7,.37-10.55a2.5,2.5,0,0,1,2.36-2.35c1.6-.08,3.34-.15,5.2-.21s3.73-.12,5.61-.16l5.43-.12c1.77,0,3.33-.06,4.69-.06s2.49,0,3.36.06c1.13.06,3.44.18,3.59,2.4a23.31,23.31,0,0,1,.15,4.73c-.1,1.39-.14,2.79-.14,4.15a2.57,2.57,0,0,1-2,2.51,26.71,26.71,0,0,1-4.35.57c-1,.05-2.08.07-3.1.07h-1.05l-4,0c-.6,0-1.2,0-1.8,0,0,.54-.08,1.08-.14,1.62,0,.3,0,.6,0,.89l1.56,0c1.29,0,2.58,0,3.86.06a2.5,2.5,0,0,1,2.42,2.35,22.71,22.71,0,0,1,.18,4.51c-.07,1.3-.09,2.68,0,4.11a2.49,2.49,0,0,1-1.86,2.48,10.81,10.81,0,0,1-2.65.36l-2.29,0-.8,0a16.25,16.25,0,0,0,0,1.71c0,.48,0,.92.06,1.34,1.94,0,3.88.1,5.78.2,1.61.09,3.26.14,4.93.14,1,0,1.93,0,2.91,0h.08a2.51,2.51,0,0,1,2.5,2.5v0c.08,1.34.1,2.75.06,4.2a20.19,20.19,0,0,1-.63,4.51,2.51,2.51,0,0,1-2.42,1.85h-2.75c-3.22,0-6.52.06-9.82.17C95.49,95.75,94.18,95.77,92.88,95.77Z"/><path d="M105.25,50.66q2,0,3.24.06a4.81,4.81,0,0,1,1.22.12,20.85,20.85,0,0,1,.15,4.33c-.1,1.47-.15,2.91-.15,4.33v.07a24,24,0,0,1-3.94.51c-1,.05-2,.07-3,.07h-1c-1.35,0-2.69,0-4,0s-2.68.07-4,.19h-.18l-.06.06A24.83,24.83,0,0,1,93.33,64a9.49,9.49,0,0,0,.21,3.51l.06.06q1.83.12,3.72.12t3.78.06v.06a19.91,19.91,0,0,1,.19,4.15c-.08,1.38-.1,2.83-.06,4.33a9.2,9.2,0,0,1-2.08.27c-.77,0-1.51,0-2.22,0s-1.36,0-1.93.07a2.19,2.19,0,0,0-1.15.3,18.45,18.45,0,0,0-.22,4c.06,1.46.13,2.68.22,3.66l.06.06q4,0,7.93.21c1.65.09,3.34.14,5.06.14,1,0,2,0,3,0v.12c.08,1.31.1,2.66.06,4.06a16.86,16.86,0,0,1-.55,3.93h-2.75q-4.89,0-9.91.17c-1.3,0-2.59.06-3.86.06q-4.36,0-8.49-.34c0-3.54,0-7-.12-10.52s-.14-6.94-.18-10.4,0-6.91,0-10.37.16-6.93.36-10.43c1.59-.08,3.3-.15,5.16-.21s3.71-.12,5.58-.16l5.43-.12c1.74,0,3.29-.06,4.63-.06m0-5c-1.36,0-2.92,0-4.75.06l-5.42.12L89.44,46c-1.84.06-3.61.13-5.24.22a5,5,0,0,0-4.74,4.7c-.21,3.56-.33,7.14-.37,10.66s0,7,0,10.49.1,7,.18,10.46.12,6.93.12,10.4a5,5,0,0,0,4.59,5c2.87.23,5.86.35,8.9.35,1.32,0,2.68,0,4-.07,3.27-.1,6.55-.16,9.74-.16h2.75a5,5,0,0,0,4.83-3.71,22.22,22.22,0,0,0,.72-5.07c0-1.5,0-3-.06-4.36a5,5,0,0,0-5-5h-.15c-.95,0-1.91,0-2.84,0-.76,0-1.53,0-2.29,0a5,5,0,0,0,1.61-3.82c0-1.35,0-2.67.06-3.9a26,26,0,0,0-.19-4.91,5.08,5.08,0,0,0-.73-2.22l.64,0a28.46,28.46,0,0,0,4.77-.63,5,5,0,0,0,3.94-4.88V59.5c0-1.3,0-2.64.14-4a26.07,26.07,0,0,0-.19-5.38h0a5,5,0,0,0-4.75-4.33c-.26,0-.65-.06-1.16-.08-.91,0-2.08-.07-3.49-.07Z"/><path class="cls-1" d="M29.08,151.8a2.51,2.51,0,0,1-2.43-1.89,10.74,10.74,0,0,1-.07-2.89c0-1.28.07-3.21.09-5.76s0-5.88-.06-9.86c-.05-3.55-.18-7.8-.38-12.67q-.87-.06-1.74-.09l-1.94,0a6.39,6.39,0,0,1-2.08-.25A2.5,2.5,0,0,1,19,117.12a5.83,5.83,0,0,1-.47-2.11c-.07-.71-.11-1.57-.13-2.53s0-1.94,0-3,0-1.88.1-2.77a2.73,2.73,0,0,1,0-.41,2.5,2.5,0,0,1,2.47-2.5q6.22-.06,12.85-.09h.58a118,118,0,0,1,12.6.66,2.49,2.49,0,0,1,2.23,2.33c.09,1.39.12,3,.1,4.82a40.08,40.08,0,0,1-.36,5.13,2.52,2.52,0,0,1-2.48,2.16,2.22,2.22,0,0,1-.51-.06,8.87,8.87,0,0,0-1.7-.14h-.57l-2.52.1v.73c0,.91,0,2.09,0,3.56s.05,3.39.09,5.73.08,5.15.12,8.43.1,7.12.18,11.54v.11a2.57,2.57,0,0,1-2.09,2.53,19.3,19.3,0,0,1-2.76.24c-.89,0-1.79,0-2.68,0H31.46a13.12,13.12,0,0,0-2,.14A2,2,0,0,1,29.08,151.8Z"/><path d="M34.37,106.2a118.34,118.34,0,0,1,12.34.64c.08,1.34.11,2.89.09,4.64a37.17,37.17,0,0,1-.34,4.82,10.83,10.83,0,0,0-2.21-.2H43.6L39,116.3h-.18a.12.12,0,0,1,0,.09.12.12,0,0,0,0,.09,7.07,7.07,0,0,0-.09,1c0,.42,0,1.09,0,2s0,2.11,0,3.6.05,3.39.09,5.73.08,5.15.12,8.42.1,7.13.18,11.56v.12a17.23,17.23,0,0,1-2.41.22c-.87,0-1.75,0-2.62,0H31.46a14.67,14.67,0,0,0-2.38.18,17.14,17.14,0,0,1,0-2.2q.06-1.95.09-5.82t-.06-9.92q-.09-6-.46-14.57l-.06-.07a5.12,5.12,0,0,0-1.83-.45c-.73-.06-1.46-.1-2.2-.12s-1.4,0-2,0a4.63,4.63,0,0,1-1.28-.12,4.57,4.57,0,0,1-.21-1.22c-.06-.65-.11-1.43-.13-2.35s0-1.9,0-3,0-2.08.13-3c0,0,0-.07,0-.07s0,0,0-.06q6.21-.06,12.84-.09h.56m0-5h-.59q-6.63,0-12.86.09a5,5,0,0,0-5,5,3.85,3.85,0,0,0,0,.48q-.09,1.31-.09,2.7c0,1.12,0,2.13,0,3.07s.07,1.93.14,2.7a8.08,8.08,0,0,0,.73,3,5,5,0,0,0,2.87,2.48,8.67,8.67,0,0,0,2.87.38l1.27,0c.15,3.9.24,7.35.29,10.31.06,4,.08,7.25.06,9.8s-.05,4.46-.09,5.71a12.41,12.41,0,0,0,.15,3.58,5,5,0,0,0,4.84,3.77,4.65,4.65,0,0,0,.83-.07,9.23,9.23,0,0,1,1.56-.11h2.59c.91,0,1.83,0,2.74,0a21.39,21.39,0,0,0,3.11-.28,5,5,0,0,0,4.18-4.93v-.21c-.08-4.4-.14-8.28-.18-11.53s-.08-6.1-.12-8.44-.07-4.24-.09-5.72c0-.68,0-1.3,0-1.85h.59a6.26,6.26,0,0,1,1.19.09,5,5,0,0,0,6-4.2,45.41,45.41,0,0,0,.38-5.45c0-1.87,0-3.55-.1-5a5,5,0,0,0-4.46-4.67,123.15,123.15,0,0,0-12.87-.67Z"/><path class="cls-1" d="M69,152l-1,0a26.86,26.86,0,0,1-4.51-.56,2.57,2.57,0,0,1-1.94-1.58,23.25,23.25,0,0,1-.78-2.59c-.23-.9-.45-1.82-.68-2.77s-.44-1.76-.67-2.58c0-.17-.1-.34-.16-.5h-.19c0,.12-.05.24-.08.36q-.27,1.29-.54,2.7c-.19,1-.39,1.94-.6,2.86a11.93,11.93,0,0,1-1.08,3,2.49,2.49,0,0,1-1.33,1.17,2.94,2.94,0,0,1-.66.19,7,7,0,0,1-1.26.09c-.44,0-1,0-1.74-.07s-2-.07-3.43-.07c-.74,0-1.57,0-2.47,0h0a2.65,2.65,0,0,1-1.94-.82,2.5,2.5,0,0,1-.62-2.43c0-.05.1-.42.36-2.08.21-1.31.5-3,.87-5.11s.8-4.48,1.31-7.2,1.13-5.68,1.82-8.72S49.19,119,50,115.76s1.73-6.65,2.72-9.94a2.49,2.49,0,0,1,2-1.76A10.3,10.3,0,0,1,56,104h1.28l2,0c.77,0,1.81-.09,3.1-.21h.22a2.5,2.5,0,0,1,2.44,1.94q.18.78.57,2.37t.87,3.72l1,4.36c.35,1.54.68,3,1,4.44s.62,2.7.9,3.87.51,2.13.68,2.82l4.58,21.4a2.39,2.39,0,0,1,.06.53,2.56,2.56,0,0,1-2,2.51A18.4,18.4,0,0,1,69,152Z"/><path d="M62.61,106.23c.12.53.32,1.34.58,2.41s.55,2.3.86,3.66.63,2.82,1,4.36.68,3,1,4.46.63,2.72.91,3.9.51,2.12.67,2.81l4.58,21.35v.06a16.56,16.56,0,0,1-3.16.29l-.87,0A23.42,23.42,0,0,1,64,149H64c-.24-.65-.47-1.42-.7-2.31l-.67-2.75c-.22-.93-.46-1.83-.7-2.68a14.86,14.86,0,0,0-.79-2.2,8.87,8.87,0,0,0-1.22-.12H59.1l-.73,0c-.26,0-.62,0-1.06,0a11.7,11.7,0,0,0-.71,2.29c-.18.87-.36,1.79-.54,2.74s-.38,1.88-.58,2.78a9.8,9.8,0,0,1-.86,2.38.12.12,0,0,0-.09,0,.12.12,0,0,1-.09,0,4.14,4.14,0,0,1-.86.06c-.4,0-.93,0-1.58-.06-.87-.06-2.07-.08-3.59-.08-.75,0-1.59,0-2.51,0a.17.17,0,0,1-.12-.06c.08-.29.22-1.08.42-2.38s.49-3,.86-5.07.8-4.46,1.31-7.16,1.11-5.59,1.8-8.64,1.44-6.22,2.26-9.51,1.7-6.57,2.68-9.82a6.52,6.52,0,0,1,.91-.06h1.29l2,0c.83,0,1.92-.1,3.26-.22m-4.3,25.6h.76l2.32,0c-.4-3.5-.76-6.22-1.06-8.17a30.38,30.38,0,0,0-.8-4c-.14-.44-.29-.66-.43-.66s-.16.07-.24.21a7.7,7.7,0,0,0-.61,2.34c-.18,1.18-.39,2.67-.61,4.46s-.48,3.72-.76,5.79c.46,0,.93,0,1.43,0m4.31-30.6-.46,0c-1.23.12-2.21.18-2.93.2l-1.92,0H56a10.62,10.62,0,0,0-1.61.11,5,5,0,0,0-4.09,3.51c-1,3.33-1.92,6.71-2.75,10.06s-1.58,6.53-2.28,9.61-1.31,6-1.83,8.81-1,5.1-1.33,7.22-.66,3.84-.87,5.17-.29,1.75-.31,1.85a5,5,0,0,0,1.25,4.79,5.15,5.15,0,0,0,3.7,1.57H46c.89,0,1.71,0,2.44,0,1.42,0,2.52,0,3.28.07s1.38.07,1.89.07a9.66,9.66,0,0,0,1.64-.12,5.21,5.21,0,0,0,1.31-.38A5.06,5.06,0,0,0,59,151.52l.3-.6a5,5,0,0,0,3.93,3,30.39,30.39,0,0,0,4.69.56l1.07,0a21.09,21.09,0,0,0,4.14-.39,5,5,0,0,0,4-4.9v-.06a5.19,5.19,0,0,0-.11-1.05L72.5,126.78a.36.36,0,0,0,0-.1c-.16-.7-.39-1.64-.67-2.83s-.59-2.44-.91-3.85-.66-2.89-1-4.43l-1-4.36c-.31-1.37-.61-2.63-.88-3.76s-.45-1.83-.57-2.34a5,5,0,0,0-4.86-3.88Z"/><path class="cls-1" d="M83.66,151.92c-1,0-1.91,0-2.88-.1a12.47,12.47,0,0,1-2.93-.5,2.49,2.49,0,0,1-1.66-1.72,203.32,203.32,0,0,1-4.57-20.53c-1.19-7-2.08-14.09-2.65-21.17a1.41,1.41,0,0,1,0-.2,2.64,2.64,0,0,1,.6-1.69,4.94,4.94,0,0,1,3.11-1.46,26.3,26.3,0,0,1,2.94-.24h1c.65,0,1.28,0,1.89,0a11.72,11.72,0,0,1,2.25.25,2.5,2.5,0,0,1,1.85,1.94,27.26,27.26,0,0,1,.35,4.39c0,1.78.14,4,.31,6.49.08,1.31.19,2.71.34,4.17.17-1,.33-2,.49-3,.36-2.32.71-4.47,1-6.43s.72-3.83,1.16-5.56a2.6,2.6,0,0,1,2.58-2.14,2.79,2.79,0,0,1,.58.07,8.65,8.65,0,0,0,1.63.21c.71,0,1.43,0,2.15,0s1.55,0,2.33,0a18.38,18.38,0,0,1,2.53.25,2.52,2.52,0,0,1,1.63,1,2.5,2.5,0,0,1,.39,1.89c-.69,3.65-1.45,7.25-2.24,10.71s-1.63,6.92-2.48,10.35-1.74,6.86-2.63,10.3-1.85,7-2.82,10.5a2.49,2.49,0,0,1-2.41,1.84c-.1,0-.42,0-1.23.1A23.24,23.24,0,0,1,83.66,151.92Z"/><path d="M76.58,106.8c.61,0,1.2,0,1.77,0a9.48,9.48,0,0,1,1.77.19,25.8,25.8,0,0,1,.3,4c0,1.83.15,4,.31,6.59s.44,5.39.82,8.48a84.14,84.14,0,0,0,1.8,9.57q1.17-4.94,1.89-9t1.28-7.6q.56-3.48,1-6.4c.33-2,.71-3.79,1.16-5.49,0-.08,0-.13.12-.13a10.12,10.12,0,0,0,2.14.28q1.09,0,2.22,0c.76,0,1.51,0,2.26,0a15.06,15.06,0,0,1,2.17.21q-1,5.43-2.23,10.62t-2.47,10.31q-1.28,5.12-2.62,10.28T87.5,149.18a14.59,14.59,0,0,0-1.52.12,20.5,20.5,0,0,1-2.32.12c-.9,0-1.8,0-2.72-.09a10,10,0,0,1-2.35-.4,206.08,206.08,0,0,1-4.51-20.28q-1.77-10.4-2.62-21v-.06A2.59,2.59,0,0,1,73,107a19.41,19.41,0,0,1,2.63-.22h.91m0-5h-1a27.2,27.2,0,0,0-3.26.27,7.41,7.41,0,0,0-4.63,2.3,5,5,0,0,0-1.21,3.26v.06c0,.13,0,.27,0,.4.58,7.15,1.48,14.35,2.68,21.39a208.31,208.31,0,0,0,4.63,20.78,5,5,0,0,0,3.32,3.43,14.69,14.69,0,0,0,3.51.62c1,.07,2,.1,3,.1a23.8,23.8,0,0,0,2.9-.16c.7-.08.94-.08,1-.08a5,5,0,0,0,4.81-3.67c1-3.54,1.93-7.08,2.83-10.53s1.79-7,2.63-10.33,1.7-7,2.49-10.4,1.57-7.12,2.27-10.8a5,5,0,0,0-4-5.86,20.79,20.79,0,0,0-2.9-.29q-1.2,0-2.4,0c-.7,0-1.39,0-2.08,0A5.92,5.92,0,0,1,90,102.1a5,5,0,0,0-1.15-.14,5.13,5.13,0,0,0-4.41,2.53,5,5,0,0,0-3.1-2.32,15.13,15.13,0,0,0-2.74-.32c-.65,0-1.32,0-2,0Z"/><path class="cls-1" d="M111.26,151.77c-3,0-5.9-.12-8.7-.35a2.49,2.49,0,0,1-2.29-2.49c0-3.49,0-7-.13-10.46s-.14-7-.18-10.43,0-7,0-10.43.17-7,.37-10.55a2.51,2.51,0,0,1,2.37-2.35c1.6-.08,3.33-.15,5.2-.21s3.73-.12,5.61-.16l5.42-.12c1.77,0,3.34-.06,4.7-.06s2.49,0,3.35.06c1.14.06,3.45.18,3.59,2.4a22.61,22.61,0,0,1,.16,4.73c-.1,1.39-.15,2.79-.15,4.15a2.57,2.57,0,0,1-2,2.51,26.57,26.57,0,0,1-4.35.57c-1,0-2.07.07-3.1.07h-1l-4,0c-.6,0-1.2,0-1.8,0,0,.54-.08,1.08-.14,1.62a6.77,6.77,0,0,0-.06.89l1.57,0c1.28,0,2.57,0,3.86.06a2.51,2.51,0,0,1,2.42,2.35,22.71,22.71,0,0,1,.18,4.51c-.08,1.3-.1,2.68-.06,4.11a2.48,2.48,0,0,1-1.85,2.48,10.89,10.89,0,0,1-2.66.36l-2.29,0-.8,0c0,.54,0,1.11,0,1.71s0,.92.06,1.34c1.94,0,3.88.1,5.78.2,1.6.09,3.26.14,4.93.14,1,0,1.93,0,2.91-.05h.07a2.49,2.49,0,0,1,2.5,2.5V141a41.56,41.56,0,0,1,.06,4.2,19.1,19.1,0,0,1-.63,4.51,2.49,2.49,0,0,1-2.41,1.85H125c-3.21,0-6.52.06-9.82.17C113.87,151.75,112.55,151.77,111.26,151.77Z"/><path d="M123.63,106.66c1.34,0,2.42,0,3.23.06a4.81,4.81,0,0,1,1.22.12,20.85,20.85,0,0,1,.15,4.33c-.1,1.47-.15,2.91-.15,4.33v.07a23.76,23.76,0,0,1-3.93.51c-1,0-2,.07-3,.07h-1c-1.34,0-2.68,0-4,0s-2.69.07-4,.19h-.18l-.06.06a23.54,23.54,0,0,1-.16,3.63,9.49,9.49,0,0,0,.22,3.51l.06.06q1.83.12,3.72.12t3.78.06v.06a20.61,20.61,0,0,1,.18,4.15c-.08,1.38-.1,2.83-.06,4.33a9.11,9.11,0,0,1-2.07.27c-.77,0-1.52,0-2.23,0s-1.35,0-1.92.07a2.24,2.24,0,0,0-1.16.3,19.16,19.16,0,0,0-.21,4q.09,2.19.21,3.66l.06.06q4,0,7.93.21c1.66.09,3.35.14,5.07.14,1,0,2,0,3-.05v.12c.09,1.31.11,2.66.07,4.06a18,18,0,0,1-.55,3.93H125c-3.25,0-6.56.06-9.9.17-1.3,0-2.59.06-3.86.06q-4.38,0-8.49-.34c0-3.54,0-7-.13-10.52s-.14-6.94-.18-10.4,0-6.91,0-10.37.16-6.93.37-10.43c1.58-.08,3.3-.15,5.15-.21s3.71-.12,5.58-.16l5.43-.12c1.75,0,3.3-.06,4.64-.06m0-5c-1.37,0-2.92,0-4.75.06l-5.42.12-5.64.16c-1.85.06-3.61.13-5.25.22a5,5,0,0,0-4.73,4.7c-.21,3.56-.34,7.14-.38,10.66s0,7,0,10.49.1,7,.19,10.46.12,6.93.12,10.4a5,5,0,0,0,4.59,5c2.86.23,5.86.35,8.9.35,1.32,0,2.67,0,4-.07,3.28-.1,6.55-.16,9.74-.16h2.76a5,5,0,0,0,4.83-3.71,22.23,22.23,0,0,0,.71-5.07c.05-1.5,0-3-.06-4.36a5,5,0,0,0-1.51-3.56,5.05,5.05,0,0,0-3.49-1.41h-.14c-1,0-1.91.05-2.84.05-.77,0-1.53,0-2.29,0a5,5,0,0,0,1.61-3.82c0-1.35,0-2.67.05-3.9a24.47,24.47,0,0,0-.19-4.91,4.83,4.83,0,0,0-.73-2.22l.65,0a28.6,28.6,0,0,0,4.77-.63,5,5,0,0,0,3.93-4.88v-.07c0-1.3,0-2.64.14-4a25.39,25.39,0,0,0-.19-5.38h0a5.05,5.05,0,0,0-4.76-4.33c-.25,0-.64-.06-1.16-.08-.91,0-2.08-.07-3.48-.07Z"/><path class="cls-1" d="M137.12,151.78c-.72,0-1.4,0-2,0l-.94,0H134a2.31,2.31,0,0,1-.37,0,2.51,2.51,0,0,1-2.49-2.26,2.64,2.64,0,0,1,.12-1c0-.16,0-.46.06-1,0-1.1.06-2.56.06-4.33v-6.32q0-3.56,0-7.36t-.13-7.52q-.09-3.76-.15-6.91t-.15-5.31a26.12,26.12,0,0,0-.19-2.74,2.52,2.52,0,0,1,2.12-2.86c2.3-.32,4.86-.64,7.6-.92a40.44,40.44,0,0,1,4.15-.22,44.62,44.62,0,0,1,4.85.27,15.26,15.26,0,0,1,7.64,2.48,16.26,16.26,0,0,1,5.25,5.55,15.61,15.61,0,0,1,2,7.36,14.41,14.41,0,0,1-2.12,7.85,13.34,13.34,0,0,1-3.74,4.42,9.84,9.84,0,0,1-2.69,1.46c.29.44.58.89.89,1.33,1,1.51,2,3,3,4.54s2,3.12,2.88,4.72a35,35,0,0,1,2.32,4.92,2.49,2.49,0,0,1-2.17,3.67c-1.36,0-2.91,0-4.61.15-.85.05-1.71.08-2.56.08-1,0-2.07,0-3.11-.11a2.57,2.57,0,0,1-2.2-1.5c-.4-.91-.9-2-1.5-3.29s-1.26-2.62-2-4l-.39-.75c0,1.1.1,2.15.17,3.17.08,1.31.14,2.36.18,3.13a2.51,2.51,0,0,1-1.54,2.45,11.27,11.27,0,0,1-3.49.73c-1.14.08-2.3.14-3.46.16Zm8.47-31.45h.56a12.53,12.53,0,0,0,2-.15.3.3,0,0,0,.21-.14,1.88,1.88,0,0,0,.34-.94,2.87,2.87,0,0,0-.13-1.22,1.13,1.13,0,0,0-.39-.6l-.14-.12a2,2,0,0,0-1.44-.48h-.18a10.73,10.73,0,0,0-1.73.24c0,.68,0,1.36,0,2,0,.45,0,.88,0,1.31Z"/><path d="M144.57,105.48a43.62,43.62,0,0,1,4.65.26,12.75,12.75,0,0,1,6.46,2.08,13.69,13.69,0,0,1,4.46,4.7,13.15,13.15,0,0,1,1.67,6.19,11.9,11.9,0,0,1-1.8,6.55,10.73,10.73,0,0,1-3.08,3.66,8.64,8.64,0,0,1-4.85,1.65h-.3v.06c.85,1.51,1.79,3,2.81,4.49s2,3,3,4.48,1.92,3,2.81,4.61a32.19,32.19,0,0,1,2.26,4.84h.06c-1.43,0-3,.06-4.76.16-.8,0-1.6.07-2.41.07-1,0-2,0-3-.1h-.06c-.41-.94-.91-2.06-1.52-3.36s-1.28-2.66-2-4.09-1.52-2.82-2.38-4.2a32.72,32.72,0,0,0-2.56-3.66l-.12-.19a27.87,27.87,0,0,0-.18,3.45c0,1.36,0,2.76.09,4.21s.13,2.81.21,4.12.14,2.33.19,3.11a9.48,9.48,0,0,1-2.72.55c-1.12.08-2.23.13-3.32.15h-1.06c-.68,0-1.32,0-1.9,0l-1.06,0a3.28,3.28,0,0,0-.55,0,5.12,5.12,0,0,0,.17-1.68c0-1.12.07-2.59.07-4.42v-6.32c0-2.37,0-4.83,0-7.38s-.06-5.06-.12-7.56-.11-4.8-.15-6.89-.09-3.89-.15-5.37a29,29,0,0,0-.22-3c2.28-.33,4.78-.63,7.51-.92a38.22,38.22,0,0,1,3.89-.2m-2.18,17.16h.06c.93.08,2,.14,3.05.18l.65,0a14.94,14.94,0,0,0,2.46-.2,2.79,2.79,0,0,0,1.8-1.19,4.56,4.56,0,0,0,.76-2.07,5.47,5.47,0,0,0-.24-2.26,3.79,3.79,0,0,0-1.22-1.8,4.52,4.52,0,0,0-3.13-1.13h-.29a12.79,12.79,0,0,0-4.21,1q.06.8.09,1.8t0,2q0,1,0,2a10.12,10.12,0,0,0,.16,1.65m20.31,26.41h0m-29.09.19h0m11-48.76a42.68,42.68,0,0,0-4.41.23c-2.77.29-5.36.61-7.69.94a5,5,0,0,0-4.24,5.71s.08.57.16,2.46c.06,1.42.11,3.19.15,5.26s.09,4.41.15,6.92.1,5,.13,7.48,0,5,0,7.34v6.32c0,1.74,0,3.17-.06,4.24,0,.27,0,.47,0,.61a5,5,0,0,0,5.39,6.22h0l.83,0c.66,0,1.38.05,2.13.05h1.15c1.2,0,2.41-.08,3.6-.17a13.78,13.78,0,0,0,4.25-.91,5,5,0,0,0,2-1.55,5,5,0,0,0,4.23,2.54c1.05.06,2.1.1,3.14.1s1.81,0,2.7-.08c1.66-.1,3.16-.15,4.47-.15h0a5,5,0,0,0,5-5,4.93,4.93,0,0,0-.66-2.47,34.75,34.75,0,0,0-2.32-4.85c-.94-1.65-1.93-3.28-2.95-4.85-.77-1.18-1.56-2.38-2.37-3.57l.56-.41a15.8,15.8,0,0,0,4.41-5.19,16.83,16.83,0,0,0,2.44-9.14,18,18,0,0,0-2.32-8.51,18.61,18.61,0,0,0-6.05-6.41,17.68,17.68,0,0,0-8.82-2.89,48.37,48.37,0,0,0-5.05-.28Z"/><path class="cls-1" d="M191.32,152c-.89,0-1.89,0-3-.16a25.33,25.33,0,0,0-2.57-.14,2.49,2.49,0,0,1-2.28-1.48c-1.32-3-2.66-5.89-4-8.72-.15-.31-.29-.63-.44-.94,0,1.22,0,2.41,0,3.57v2.72c0,.83,0,1.57.06,2.2a2.5,2.5,0,0,1-1.84,2.56,10,10,0,0,1-1.77.32c-.54.05-1.06.07-1.57.07a27.86,27.86,0,0,1-3.27-.2,21.17,21.17,0,0,0-2.59-.16,2.5,2.5,0,0,1-2.5-2.5v-4.27c0-3.84,0-7.54-.09-11s-.09-7.21-.09-11c0-2.84,0-5.67.12-8.41s.23-5.51.43-8.14a2.51,2.51,0,0,1,2-2.25,14.27,14.27,0,0,1,1.58-.23c.55,0,1.1-.07,1.65-.07.26,0,.7,0,1.31,0s1.26.06,1.89.13,1.2.15,1.69.24c1.75.34,2.38,1.23,2.58,2,.23.56.43,1,.62,1.42l.7,1.4.75,1.53c.28.57.61,1.31,1,2.2.1.23.25.55.49,1l.11.21c0-.75,0-1.51,0-2.27s0-1.75,0-2.65,0-1.84.09-2.88a2.5,2.5,0,0,1,2.06-2.36,27.69,27.69,0,0,1,4.83-.4,22.31,22.31,0,0,1,4.53.42,2.49,2.49,0,0,1,2,2.44v19.65c0,1.66.07,3.41.07,5.18v5.25c0,1.19,0,2.35,0,3.46s0,2.19,0,3.31q0,1.19,0,2.37c0,.84,0,1.67,0,2.51v1.22a2.49,2.49,0,0,1-1.41,2.24,4.86,4.86,0,0,1-1,.34A7.68,7.68,0,0,1,191.32,152Z"/><path d="M189.25,105.93a20.21,20.21,0,0,1,4,.36v19.65c0,1.7.07,3.43.07,5.18v5.25c0,1.18,0,2.31,0,3.41s0,2.22,0,3.36c0,.81,0,1.62,0,2.44s0,1.62,0,2.44v1.22a5,5,0,0,1-.55.18,6.22,6.22,0,0,1-1.47.12c-.81,0-1.75,0-2.8-.15s-2-.15-2.81-.15q-2-4.52-4-8.76c-1.33-2.82-2.46-5.54-3.39-8.14l-.61-1.83c-.16-.45-.32-.86-.46-1.25s-.25-.58-.33-.58a7.19,7.19,0,0,0-.16,1.46c-.06,1-.11,2.22-.15,3.73s-.07,3.17-.09,5,0,3.6,0,5.3v2.72c0,.87,0,1.66.06,2.35a7.86,7.86,0,0,1-1.34.24c-.45,0-.9.06-1.34.06a24.62,24.62,0,0,1-3-.18,24.26,24.26,0,0,0-2.9-.18v-4.27q0-5.81-.09-11t-.09-11q0-4.22.12-8.33t.43-8c.4-.08.84-.14,1.31-.19s.94-.06,1.43-.06l1.22,0c.57,0,1.14.07,1.71.13s1.07.13,1.49.21.64.16.64.24a19.53,19.53,0,0,0,.8,1.83l.7,1.41c.22.44.47.94.73,1.49s.58,1.25,1,2.11c.08.2.26.59.55,1.15s.61,1.24,1,2l1.16,2.38c.41.83.78,1.58,1.13,2.25l.88,1.71a2.65,2.65,0,0,0,.43.7c.12-.08.22-.49.31-1.22a19.55,19.55,0,0,0,.12-2.13c0-1.63,0-3.14-.09-4.55s-.1-2.83-.1-4.3c0-.85,0-1.71,0-2.59s0-1.82.09-2.84a25.58,25.58,0,0,1,4.39-.36m0-5a30.68,30.68,0,0,0-5.26.44,5,5,0,0,0-3.63,2.74,5.58,5.58,0,0,0-3.86-2.36c-.57-.11-1.21-.2-1.91-.28s-1.36-.12-2.05-.14-1.13,0-1.41,0c-.62,0-1.25,0-1.86.08s-1.28.15-1.86.26a5,5,0,0,0-4,4.52c-.21,2.66-.35,5.44-.44,8.26s-.12,5.61-.12,8.48c0,3.82,0,7.54.09,11.06s.09,7.13.09,11v4.27a5,5,0,0,0,5,5,20.37,20.37,0,0,1,2.29.14,28.63,28.63,0,0,0,3.57.22c.58,0,1.18,0,1.78-.08a12.64,12.64,0,0,0,2.21-.4,5,5,0,0,0,3.27-2.8h0a5,5,0,0,0,4.57,3c.66,0,1.44,0,2.33.13,1.24.12,2.31.17,3.28.17a10.06,10.06,0,0,0,2.83-.31,7.94,7.94,0,0,0,1.38-.5,5,5,0,0,0,2.81-4.49V148c0-.86,0-1.71,0-2.57s0-1.54,0-2.31c0-1.11,0-2.19,0-3.26s0-2.3,0-3.51v-5.25c0-1.73,0-3.5-.07-5.24V106.29a5,5,0,0,0-4-4.89,25.19,25.19,0,0,0-5-.47Z"/></svg>