<svg id="Layer_1" data-name="Layer 1" xmlns="http://www.w3.org/2000/svg" viewBox="0 0 213.94 244.13"><defs><style>.cls-1{fill:#ffcf9d;}.cls-2{fill:#99553e;}.cls-3{fill:none;}.cls-3,.cls-4,.cls-5,.cls-7{stroke:#000;stroke-linecap:round;stroke-linejoin:round;}.cls-3,.cls-7{stroke-width:4px;}.cls-4,.cls-5,.cls-6,.cls-7{fill:#fff;}.cls-4{stroke-width:3.8px;}.cls-5{stroke-width:3.91px;}</style></defs><polygon class="cls-1" points="179.74 103.68 176.63 95.1 170.12 89.01 162.66 86.26 155.59 88.44 149.09 91.75 146.2 92.92 140.89 91.53 135.75 84.25 125.54 78.24 113.94 75.67 104.03 79.81 95.67 87.66 90.21 100.53 88.95 111.8 91.09 124.72 94.32 134.17 104.95 144.12 99.46 145.9 92.98 150.39 89.92 158.92 91.03 166.56 98.61 177.97 107.47 185.38 121.12 191.82 137.01 195.1 148.64 195.71 165.81 192.82 170.15 189.12 169.57 185.11 166.61 183.98 171.72 167.39 173.66 164.3 176.74 160.39 176.05 156.73 173.06 152.55 175.92 143.86 174.43 137.72 170.94 134.89 176.74 124.02 181.41 108.09 179.74 103.68"/><polygon class="cls-2" points="164.32 85.75 161.47 75.5 155.43 70.29 152.8 68.03 151.23 58.33 143.88 46.03 134.19 37.84 124.12 33.14 131.28 45.27 130.74 49.79 123.39 42.16 111.97 34.19 98.52 28.9 94.25 30.14 103.8 37.34 107.83 42.94 106.64 44.24 95.92 38.02 82.43 34.37 69.81 35.06 67.03 37.69 75.09 39.13 82.06 44.05 81.34 45.3 70.97 46.19 59.88 51.94 53.87 58.65 49.67 70.73 46.35 86.63 38.52 130.97 35.91 148.49 36.85 160.91 39.3 172.18 37.84 181.07 42.39 177.71 46.69 172 58.02 191.11 61.28 200.87 61.71 205.93 66.24 195.72 68.32 191.11 102.29 206.88 128.17 213.3 151.44 215.23 162.18 212.08 167.34 207.22 169.26 201.32 168.46 193.13 166.7 191.11 157.95 194.71 142.37 195.01 125.55 193.03 114.25 189.16 104.86 183.53 97.25 176.47 91.03 166.56 90.11 157.51 92.98 150.39 97.14 146.8 104.95 144.12 97.01 136.72 92.22 128.7 89.02 115 90.62 96.31 96.96 85.93 106.62 78.46 116.12 76.33 125.54 78.24 135.75 84.25 140.89 91.53 146.2 92.92 152.3 90.25 158.96 87.4 164.32 85.75"/><path class="cls-3" d="M164.32,85.75s-.73-16-14.35-17-36-4-36-4"/><path class="cls-3" d="M167.28,192.53s8.57,15.45-8.88,21.2-56.11-6.85-56.11-6.85-22.76-8.79-35.13-15.77c0,0-1.54,11.79-6.63,16,0,0,3.34-8.67-3.78-18.16a89.71,89.71,0,0,1-10.63-18.26,15,15,0,0,1-8.28,10.39s2.39-5.33-.38-16.58c-4.21-17.11,6.81-64.89,6.81-64.89s4-28.85,8.74-39.29S71,46.19,71,46.19s7.83-1.21,12.25-.8c0,0-7-9.54-18.37-7.43,0,0,17.77-12.45,44.26,8.13,0,0-2.31-10-16.86-17,0,0,15.56-3.92,39.75,21.07,0,0,.8-10.54-12-19.37,0,0,33.56,10.62,32.74,38.38"/><path class="cls-3" d="M127.26,153.69s-6-17,10.44-19.47a27.67,27.67,0,0,1,16.89,4.07s3.37-4.84,12.48-4a9.84,9.84,0,0,1,7.17,4c1.57,2.22,2.12,4.78,1.16,8.34a17.85,17.85,0,0,1-11.37,12c-6.52,2.34-17.53,4.27-35.23,2.29"/><path class="cls-3" d="M172.4,153.69s10.14,4.91,0,11.5L166.61,184c2.65-.67,4.79,3,3.54,5.13a11.16,11.16,0,0,1-6.3,4.47c-14.28,4-30.27,1.63-40.46-1.1a52.59,52.59,0,0,1-26.14-16c-4.39-5-8-11.19-7.33-17.55,1.53-15.27,16-14.13,16-14.13-20-13-16.82-35.82-16.82-35.82S89,85,108.25,77.79c14.46-5.44,25.59,5,30.25,10.58a10.26,10.26,0,0,0,13.61,2l.19-.14a16.83,16.83,0,0,1,21,1,24.27,24.27,0,0,1,5.19,6.93c7.44,14.51-7.07,35.7-7.07,35.7"/><polygon class="cls-1" points="62.81 107.98 55.96 100.39 46.48 96.87 37.92 98.82 33.27 106.9 33.27 115.65 36.33 124.31 41.44 131.34 49.77 136 55.84 137.66 62.29 134.16 64.64 125.42 59.8 127.87 62.5 121.38 65.37 115.65 58.02 118.93 60.52 112.26 62.81 107.98"/><path class="cls-3" d="M62.81,108S52.16,90,38,99.82c0,0-11.15,8.06-1.69,24.49s21.35,15,26,9.85"/><path class="cls-3" d="M59,111.82s-9.81-12.21-15.89-3.35a10.66,10.66,0,0,0-1.84,6.64c.2,3.68,2,9.38,10.38,12.42"/><path class="cls-3" d="M50.1,115.62s-.69-9.71,8.93-3.8"/><path class="cls-3" d="M65.86,103.68S59.35,111.4,58,119.74c0,0,5.45-5.45,9-3.78,0,0-7,6.79-7.23,11.91,0,0,4.23-2.67,6.57-2.89,0,0-6.57,8.12-3.34,15.58"/><ellipse class="cls-4" cx="159.21" cy="112.5" rx="11.17" ry="15.03"/><ellipse class="cls-5" cx="120.58" cy="112.06" rx="14.6" ry="19.6"/><path d="M113.94,118.9c0,5.66,2.43,10.59,6,13.12,1.62,1.15,3.11-1.3,5.09-1.3,3.17,0,3.94-1.63,6-4.33s3.88-4.53,3.88-8.65c0-2.88,1.32-4.42.23-6.7-2-4.24-5.64-7.06-9.76-7.06C119.08,104,113.94,110.66,113.94,118.9Z"/><path d="M151.32,117.86a16.74,16.74,0,0,0,1.25,6.45c1,2.3,2.55,1.77,4.32,3a6.84,6.84,0,0,0,4.49,1.25c2.87,0,3.58-1.48,5.46-3.92s3.52-4.11,3.52-7.85c0-2.61,1.19-4,.2-6.08-1.83-3.84-5.11-6.4-8.84-6.4C156,104.33,151.32,110.39,151.32,117.86Z"/><ellipse class="cls-6" cx="157.83" cy="113.98" rx="4.12" ry="3.18" transform="translate(9.39 239.96) rotate(-76.16)"/><ellipse class="cls-6" cx="120.58" cy="113.98" rx="4.12" ry="3.18" transform="translate(-18.94 203.79) rotate(-76.16)"/><path d="M157.2,154.37c-.32-1.93-.9-8.26,5.1-9.8a8.39,8.39,0,0,1,3.63-.13c1.81.35,4.23,1.43,3.22,4.75,0,0-.69,2.43-7.65,3.74a7.36,7.36,0,0,0-3.82,1.6A.29.29,0,0,1,157.2,154.37Z"/><path d="M153.43,154.43c-.21-2.49-1.43-9.63-8.68-9.63a9.77,9.77,0,0,0-4,.85c-2,.9-4.44,2.81-2.38,6.32,0,0,1.47,2.59,9.78,2.16a8.79,8.79,0,0,1,4.66.7A.43.43,0,0,0,153.43,154.43Z"/><path class="cls-7" d="M172.4,165.19s-44.82,16.49-69.1-6.11a40.76,40.76,0,0,0,33.42,27.59c26.94,4,31.24-4.54,31.24-4.54Z"/><path class="cls-3" d="M109.23,157.7s-8.9-1.43-9.22,6.44"/><path d="M108.48,165.72C118,175.29,126,177,127.63,177.25l1.69-2.53a.52.52,0,0,1,.46-.22.51.51,0,0,1,.42.31l1.28,3.12c12.53,3.7,26.45,1.56,28.43,1.23l2.85-5.56a.5.5,0,0,1,.93.11l1,3.87,2.55-.51-.28,1.07-2.54.51a.49.49,0,0,1-.58-.37l-.77-3-2.36,4.59a.5.5,0,0,1-.36.27,76.06,76.06,0,0,1-12.35,1,60.18,60.18,0,0,1-17-2.25.51.51,0,0,1-.32-.29l-1-2.47-1.34,2a.49.49,0,0,1-.46.22c-.38,0-7.63-.8-17-8.95l-.38-.52-.27-.4-.33-.46-.25-.38-.16-.25-.12-.19-.14-.22-.11-.18-.13-.22-.13-.2-.23-.39Z"/></svg>